<svg viewBox="0 0 657.571 448.892" height="448.892" width="657.571" xml:space="preserve" xmlns="http://www.w3.org/2000/svg"><defs><clipPath id="a" clipPathUnits="userSpaceOnUse"><path d="m2164 1596.47-89.31 12.71 9.03 63.47 38.74-5.51 5.64 39.65-38.73 5.51 39.66 278.77 38.73-5.51 5.65 39.65-38.74 5.51 6.68 46.94-14.56 2.07 103.86-14.77-14.29-100.44-13.76-96.77-4.78-33.56-13.77-96.76-4.77-33.56-13.77-96.77-1.51-10.63m-161.02 22.91-101.13 14.39-96.77 13.76-61.11 8.7-96.76 13.77-135.08 19.21 490.85-69.83"/></clipPath></defs><path style="fill:#ededeb;fill-opacity:1;fill-rule:nonzero;stroke:none;stroke-width:.16353" d="M212.685 495.274H327.01V195.808H212.685z" transform="translate(-4.648 -46.382)"/><path style="fill:#fafaf9;fill-opacity:1;fill-rule:nonzero;stroke:none;stroke-width:.16353" d="M181.317 495.274h134.265V195.808H181.317Z" transform="translate(-4.648 -46.382)"/><path style="fill:#e7e8e5;fill-opacity:1;fill-rule:nonzero;stroke:none;stroke-width:.16353" d="M188.23 221.067h15.822v-15.824H188.23zm25.816 0h15.825v-15.824h-15.825zm41.643 0h-15.825v-15.824h15.825v15.824m25.818 0h-15.825v-15.824h15.825v15.824m25.819 0H291.5v-15.824h15.825v15.824M188.229 242.38h15.823v-15.824H188.23zm25.817 0h15.825v-15.824h-15.825zm25.818 0h15.825v-15.824h-15.825zm25.82 0h15.823v-15.824h-15.823zm41.642 0H291.5v-15.823h15.825v15.823m-119.096 21.31h15.823v-15.825H188.23zm25.817 0h15.825v-15.825h-15.825zm25.818 0h15.825v-15.825h-15.825zm25.82 0h15.823v-15.825h-15.823zm41.642 0H291.5v-15.825h15.825v15.825m-119.097 21.312h15.823v-15.824H188.23zm25.817 0h15.825v-15.824h-15.825zm25.818 0h15.825v-15.824h-15.825zm25.82 0h15.823v-15.824h-15.823zm41.642 0H291.5v-15.824h15.825v15.824m-119.097 21.313h15.823V290.49H188.23zm25.817 0h15.825V290.49h-15.825zm25.818 0h15.825V290.49h-15.825zm25.82 0h15.823V290.49h-15.823zm41.642 0H291.5V290.49h15.825v15.825" transform="translate(-4.648 -46.382)"/><path style="fill:#e2e2e0;fill-opacity:1;fill-rule:nonzero;stroke:none;stroke-width:.16353" d="M358.037 495.274h116.021V158.566H358.037Z" transform="translate(-4.648 -46.382)"/><path style="fill:#f3f2f1;fill-opacity:1;fill-rule:nonzero;stroke:none;stroke-width:.16353" d="M326.666 495.274h113.728V158.566H326.666Z" transform="translate(-4.648 -46.382)"/><path style="fill:#dadbd8;fill-opacity:1;fill-rule:nonzero;stroke:none;stroke-width:.16353" d="M335.786 182.795h96.566V170.29h-96.566zm0 19.267h96.566v-12.506h-96.566zm96.566 19.267h-96.566v-12.507h96.566v12.507m0 19.266h-96.566v-12.506h96.566v12.506m0 19.267h-96.566v-12.507h96.566v12.507" transform="translate(-4.648 -46.382)"/><path style="fill:#e2e2e0;fill-opacity:1;fill-rule:nonzero;stroke:none;stroke-width:.16353" d="M181.317 495.274H65.295V316.573h116.022v178.701" transform="translate(-4.648 -46.382)"/><path style="fill:#ededeb;fill-opacity:1;fill-rule:nonzero;stroke:none;stroke-width:.16353" d="M147.652 495.274H33.925V316.573h113.727v178.701" transform="translate(-4.648 -46.382)"/><path style="fill:#dadbd8;fill-opacity:1;fill-rule:nonzero;stroke:none;stroke-width:.16353" d="M139.072 339.426H42.507V326.92h96.565v12.507m0 19.268H42.507v-12.509h96.565v12.509m0 19.265H42.507v-12.505h96.565v12.505m0 19.266H42.507V384.72h96.565v12.506m0 19.268H42.507v-12.508h96.565v12.508" transform="translate(-4.648 -46.382)"/><path style="fill:#e2e2e0;fill-opacity:1;fill-rule:nonzero;stroke:none;stroke-width:.16353" d="M621.449 495.274H505.427V316.573h116.022v178.701" transform="translate(-4.648 -46.382)"/><path style="fill:#ededeb;fill-opacity:1;fill-rule:nonzero;stroke:none;stroke-width:.16353" d="M587.784 495.274H474.058V316.573h113.726v178.701" transform="translate(-4.648 -46.382)"/><path style="fill:#fafaf9;fill-opacity:1;fill-rule:nonzero;stroke:none;stroke-width:.16353" d="M500.107 342.744h-15.825V326.92h15.825v15.825m25.819 0H510.1V326.92h15.825v15.825m25.816 0H535.92V326.92h15.823v15.825m25.819 0h-15.825V326.92h15.825v15.825m-77.454 23.758h-15.825V350.68h15.825v15.823m25.819 0H510.1V350.68h15.825v15.823m25.816 0H535.92V350.68h15.823v15.823m25.819 0h-15.825V350.68h15.825v15.823m-77.454 23.761h-15.825v-15.825h15.825v15.825m25.819 0H510.1v-15.825h15.825v15.825m25.816 0H535.92v-15.825h15.823v15.825m25.819 0h-15.825v-15.825h15.825v15.825m-77.454 23.76h-15.825v-15.825h15.825v15.824m25.819 0H510.1v-15.824h15.825v15.824m25.816 0H535.92v-15.824h15.823v15.824m25.819 0h-15.825v-15.824h15.825v15.824" transform="translate(-4.648 -46.382)"/><path style="fill:#f3f2f1;fill-opacity:1;fill-rule:nonzero;stroke:none;stroke-width:.16353" d="M4.648 173.85h152.121s9.846-19.454-6.947-19.454c0 0-3.05-21.447-18.091-24.34-15.042-2.891-23.665 15.262-23.665 15.262s-6.915-39.484-25.924-35.4c-19.008 4.084-19.008 22.24-19.008 22.24s-10.893-18.61-25.87-11.348c-14.978 7.262-10.44 37.216-10.44 37.216s-21.66-8.294-22.176 15.824m657.57 43.392H488.463s15.026-22.863 41.807-16.33c0 0-6.531-30.049 23.516-23.515 0 0 14.37-32.01 35.928-23.518 21.555 8.492 18.289 39.194 18.289 39.194s49.643-14.372 54.217 24.17" transform="translate(-4.648 -46.382)"/><path style="fill:#406fbf;fill-opacity:1;fill-rule:nonzero;stroke:none;stroke-width:.16353" d="M523.903 104.848c-1.788 5.57-8.698 7.646-8.698 7.646l-317.04 16.882c-22.466.42-38.475-2.34-49.862-6.455-7.889-2.86-13.578-6.36-17.663-9.918-10.374-9.045-10.515-18.443-10.515-18.443l43.772-2.239c3.677-.193 7.546-.39 11.567-.597l13.328-.688c98.552-5.019 269.698-13.673 282.08-13.712 5.371-.01 12.334 1.301 19.445 3.398 5.76 1.69 11.614 3.908 16.79 6.332 6.613 3.09 12.143 6.525 15.003 9.7 1.15 1.245 1.865 2.47 2.064 3.606.291 1.701.147 3.174-.271 4.488" transform="translate(-4.648 -46.382)"/><path style="fill:#406fbf;fill-opacity:1;fill-rule:nonzero;stroke:none;stroke-width:.16353" d="m188.792 91.036-13.328.688-11.567.597-43.772 2.239-5.727-47.382 19.155-.79s3.427 6.122 16.493 24.31c13.066 18.184 38.746 20.338 38.746 20.338" transform="translate(-4.648 -46.382)"/><path style="fill:#17282f;fill-opacity:1;fill-rule:nonzero;stroke:none;stroke-width:.16353" d="M523.903 104.848c-1.788 5.57-8.698 7.646-8.698 7.646l-317.04 16.882c-22.466.42-38.474-2.34-49.862-6.455l375.6-18.073" transform="translate(-4.648 -46.382)"/><path style="fill:#e0e1de;fill-opacity:1;fill-rule:nonzero;stroke:none;stroke-width:.16353" d="M130.642 113.005c-6.23-5.426-8.769-10.982-9.804-14.558 1.037 3.575 3.578 9.13 9.802 14.556h.003m391.122-16.62c-1.442-1.504-3.465-3.06-5.898-4.606 2.438 1.543 4.463 3.1 5.898 4.606m-401.689-2.229-.013-.103-.085-.701.098.804m387.464-6.896a34.945 34.945 0 0 0-.434-.204c-.27-.126-.54-.252-.812-.376.273.124.544.248.814.374l.432.206m-341.576-3.172c-5.762-3.014-11.546-7.305-15.918-13.389C136.98 52.51 133.553 46.39 133.553 46.39l-10.527.435 10.528-.442s3.434 6.132 16.499 24.317c4.371 6.082 10.152 10.371 15.911 13.387m192.732-1.603c58.235-2.881 105.858-5.145 112.174-5.16a34.914 34.914 0 0 1 .06 0h-.059c-6.315.02-53.94 2.282-112.175 5.16m133.227-1.277c-.462-.142-.921-.281-1.38-.417.462.132.918.271 1.38.417" transform="translate(-4.648 -46.382)"/><path style="fill:#3b69bb;fill-opacity:1;fill-rule:nonzero;stroke:none;stroke-width:.16353" d="m130.643 113.005-.003-.001c-6.224-5.426-8.765-10.982-9.802-14.556-.68-2.355-.71-3.851-.71-3.887l43.77-2.24 11.566-.596 13.284-.687.046.005c48.274-2.46 113.98-5.794 169.902-8.56 58.235-2.877 105.86-5.139 112.176-5.159h.058c.31 0 .624.005.944.013 5.227.15 11.761 1.422 18.438 3.387.077.023.154.043.23.066.46.135.92.274 1.381.417.16.05.322.103.484.155a121.123 121.123 0 0 1 13.887 5.316c.273.125.543.25.813.376a68.073 68.073 0 0 1 2.536 1.241c2.263 1.137 4.365 2.306 6.224 3.482 2.434 1.547 4.456 3.102 5.899 4.607.116.123.229.245.338.366l-391.462 16.255" transform="translate(-4.648 -46.382)"/><path style="fill:#3b69bb;fill-opacity:1;fill-rule:nonzero;stroke:none;stroke-width:.16353" d="M120.128 94.56v-.002l-.052-.404-.098-.804-.277-2.308-5.296-43.859 8.621-.36 10.526-.434s3.428 6.12 16.494 24.308c4.371 6.084 10.155 10.375 15.918 13.389 11.035 5.779 21.992 6.88 22.783 6.951l-13.283.687-11.567.597-43.769 2.239" transform="translate(-4.648 -46.382)"/><path style="fill:#fff;fill-opacity:1;fill-rule:nonzero;stroke:none;stroke-width:.16353" d="m206.641 104.962-.695.03a2.445 2.445 0 0 1-2.536-2.33l-.121-2.892a2.44 2.44 0 0 1 2.328-2.535l.697-.03a2.44 2.44 0 0 1 2.535 2.33l.122 2.89a2.444 2.444 0 0 1-2.33 2.537m11.655-.517-.693.066a2.443 2.443 0 0 1-2.651-2.196l-.27-2.884a2.441 2.441 0 0 1 2.198-2.649l.695-.065a2.441 2.441 0 0 1 2.649 2.198l.27 2.88a2.442 2.442 0 0 1-2.198 2.65m11.482-.462-.695.03a2.442 2.442 0 0 1-2.535-2.33l-.123-2.89a2.44 2.44 0 0 1 2.329-2.536l.696-.03a2.442 2.442 0 0 1 2.537 2.33l.12 2.89a2.44 2.44 0 0 1-2.33 2.536m11.567-.49-.697.03a2.44 2.44 0 0 1-2.534-2.329l-.123-2.89a2.442 2.442 0 0 1 2.329-2.537l.696-.03a2.442 2.442 0 0 1 2.535 2.33l.123 2.892a2.44 2.44 0 0 1-2.329 2.535m12.324-.522-.695.03a2.442 2.442 0 0 1-2.537-2.33l-.12-2.89a2.44 2.44 0 0 1 2.328-2.535l.697-.03a2.44 2.44 0 0 1 2.534 2.329l.123 2.893a2.44 2.44 0 0 1-2.33 2.533m12.032-.509-.696.03a2.442 2.442 0 0 1-2.535-2.329l-.123-2.891a2.443 2.443 0 0 1 2.33-2.535l.697-.03a2.44 2.44 0 0 1 2.535 2.33l.123 2.89a2.441 2.441 0 0 1-2.33 2.535m110.088-4.634-.696.03a2.443 2.443 0 0 1-2.537-2.33l-.12-2.892a2.44 2.44 0 0 1 2.328-2.533l.697-.03a2.443 2.443 0 0 1 2.536 2.329l.121 2.891a2.44 2.44 0 0 1-2.329 2.535m12.264-.519-.697.03a2.44 2.44 0 0 1-2.535-2.329l-.122-2.891a2.442 2.442 0 0 1 2.328-2.536l.699-.03a2.442 2.442 0 0 1 2.534 2.329l.123 2.893a2.443 2.443 0 0 1-2.33 2.534m10.915-.46-.696.029a2.443 2.443 0 0 1-2.537-2.329l-.12-2.891a2.442 2.442 0 0 1 2.328-2.537l.697-.029a2.44 2.44 0 0 1 2.534 2.329l.125 2.89a2.444 2.444 0 0 1-2.33 2.537m11.404-.482-.697.03a2.442 2.442 0 0 1-2.536-2.33l-.121-2.89a2.441 2.441 0 0 1 2.329-2.537l.695-.03a2.443 2.443 0 0 1 2.536 2.33l.121 2.89a2.442 2.442 0 0 1-2.327 2.537m10.742-.455-.696.03a2.442 2.442 0 0 1-2.535-2.33l-.123-2.89a2.44 2.44 0 0 1 2.33-2.535l.697-.031a2.44 2.44 0 0 1 2.533 2.33l.125 2.891a2.443 2.443 0 0 1-2.33 2.535" transform="translate(-4.648 -46.382)"/><path style="fill:#17282f;fill-opacity:1;fill-rule:nonzero;stroke:none;stroke-width:.16353" d="m368.704 95.044-117.517-38.44a38.995 38.995 0 0 0-13.44-1.906l-26.323.902 68.749 43.704 88.53-4.26m-50.717 27.95-24.417 22.913 9.466.437a37.527 37.527 0 0 0 13.476-1.848l77.457-25.547-75.982 4.046m-93.204-1.428-4.154-4.518-39.084-9.013a53.666 53.666 0 0 0-15.259-1.277l-17.035 1.016 32.992 15.838 42.54-2.046m-35.989-30.525-68.73 3.01-.361-3.01-2.288-18.986-1.063-8.765-1.946-16.108 19.15-.801s2.321 4.137 10.383 15.699a596.471 596.471 0 0 0 5.82 8.21l.295.408c13.066 18.185 38.74 20.343 38.74 20.343" transform="translate(-4.648 -46.382)"/><path style="fill:#fff;fill-opacity:1;fill-rule:nonzero;stroke:none;stroke-width:.16353" d="m149.759 70.29-32.345 1.766-1.063-8.765 27.587-1.21a596.471 596.471 0 0 0 5.82 8.21m359.885 18.004c-16.682 1.161-63.893 3.385-70.858 2.878-8.602-.638-7.475-7.08-7.475-7.08l61.097-2.732a120.922 120.922 0 0 1 14.701 5.691c.865.409 1.717.818 2.535 1.243" transform="translate(-4.648 -46.382)"/><path style="fill:#17282f;fill-opacity:1;fill-rule:nonzero;stroke:none;stroke-width:.16353" d="M162.915 215.337c0-.013.135-.209.346-.46 1.678-2.022 8.478-9.046 17.696-18.395 13.831-14.03 33.141-33.34 48.992-49.144a19065.312 19065.312 0 0 1 26.06-25.931l2.185-2.169-.288-.29-.407.042 11.13 110.414a.41.41 0 0 0 .448.367.411.411 0 0 0 .367-.448l-11.132-110.415a.411.411 0 0 0-.695-.25s-23.476 23.293-47.136 46.966c-11.83 11.836-23.704 23.77-32.715 32.933-4.505 4.583-8.292 8.471-11.002 11.313a181.61 181.61 0 0 0-3.212 3.435c-.386.426-.693.778-.92 1.051-.23.28-.367.45-.455.628a.41.41 0 1 0 .738.353" transform="translate(-4.648 -46.382)"/><path style="fill:#17282f;fill-opacity:1;fill-rule:nonzero;stroke:none;stroke-width:.16353" d="m180.772 217.014 76.922-97.14 25.064 111.998c.109.547.932.363.797-.178l-25.25-112.833a.408.408 0 0 0-.72-.165l-77.454 97.809a.407.407 0 0 0 .067.574c.177.14.433.111.574-.066" transform="translate(-4.648 -46.382)"/><path style="fill:#406fbf;fill-opacity:1;fill-rule:nonzero;stroke:none;stroke-width:.16353" d="m272.74 308.053-106.6-15.166 10.9-76.613 106.6 15.166-10.9 76.613" transform="translate(-4.648 -46.382)"/><g clip-path="url(#a)" transform="matrix(.16353 0 0 -.16353 -85.788 522.743)"><path style="fill:#2d5bb2;fill-opacity:1;fill-rule:nonzero;stroke:none" d="M1512.13 1596.47h718.52v483.262h-718.52z"/></g><path style="fill:#406fbf;fill-opacity:1;fill-rule:nonzero;stroke:none;stroke-width:.16353" d="m258.135 305.976-106.599-15.17 10.901-76.61 106.6 15.167-10.902 76.613" transform="translate(-4.648 -46.382)"/><path style="fill:#90b4e3;fill-opacity:1;fill-rule:nonzero;stroke:none;stroke-width:.16353" d="M210.206 290.025a29.33 29.33 0 0 1-4.137-.294c-15.92-2.267-26.991-17.007-24.726-32.929 2.067-14.53 14.528-25.018 28.79-25.018 1.367 0 2.747.096 4.138.294 15.92 2.265 26.99 17.006 24.725 32.927-2.067 14.53-14.527 25.02-28.79 25.02" transform="translate(-4.648 -46.382)"/><path style="fill:#85a4dc;fill-opacity:1;fill-rule:nonzero;stroke:none;stroke-width:.16353" d="m273.355 244.425-6.333-.901.922-6.484 6.335.9-.924 6.485" transform="translate(-4.648 -46.382)"/><path style="fill:#90b4e3;fill-opacity:1;fill-rule:nonzero;stroke:none;stroke-width:.16353" d="m267.022 243.524-13.065-1.86.924-6.482 13.063 1.858-.922 6.484" transform="translate(-4.648 -46.382)"/><path style="fill:#85a4dc;fill-opacity:1;fill-rule:nonzero;stroke:none;stroke-width:.16353" d="m265.947 296.496-6.335-.9.924-6.485 6.334.901-.923 6.484" transform="translate(-4.648 -46.382)"/><path style="fill:#90b4e3;fill-opacity:1;fill-rule:nonzero;stroke:none;stroke-width:.16353" d="m259.612 295.595-13.063-1.86.923-6.483 13.064 1.86-.924 6.483" transform="translate(-4.648 -46.382)"/><path style="fill:#fff;fill-opacity:1;fill-rule:nonzero;stroke:none;stroke-width:.16353" d="M229.398 274.465a1.59 1.59 0 0 1-2.194.497 1.59 1.59 0 0 1 1.68-2.703c.717.49.94 1.45.514 2.206zm-36.99-27.527 5.833 3.588c.703.453.915 1.385.48 2.098l-2.593 4.198c-.441.71-1.37.932-2.085.5l-5.833-3.588a7.855 7.855 0 0 0 10.513 7.552 5.765 5.765 0 0 1 5.274.75l20.657 14.375a4.285 4.285 0 0 0 5.97-.943 4.202 4.202 0 0 0-1.054-5.85l-.396-.243-22.28-12.018a5.764 5.764 0 0 1-2.977-4.4 7.854 7.854 0 0 0-11.459-6.012l-.05-.007" transform="translate(-4.648 -46.382)"/><path style="fill:#17282f;fill-opacity:1;fill-rule:nonzero;stroke:none;stroke-width:.16353" d="m406.453 334.195 3.815-221.184a.412.412 0 0 0-.317-.405.41.41 0 0 0-.461.225l-98.97 211.411a.407.407 0 1 0 .74.347l98.157-209.676-3.783 219.267a.41.41 0 0 0 .818.015" transform="translate(-4.648 -46.382)"/><path style="fill:#17282f;fill-opacity:1;fill-rule:nonzero;stroke:none;stroke-width:.16353" d="m418.859 336.843-8.59-223.855a.41.41 0 0 0-.79-.13L327.36 327.107a.41.41 0 0 0 .764.293l81.403-212.386 8.513 221.86a.409.409 0 0 0 .818-.03" transform="translate(-4.648 -46.382)"/><path style="fill:#406fbf;fill-opacity:1;fill-rule:nonzero;stroke:none;stroke-width:.16353" d="m410.91 404.69-95.905-11.513 8.273-68.926 95.904 11.512-8.273 68.927" transform="translate(-4.648 -46.382)"/><path style="fill:#2d5bb2;fill-opacity:1;fill-rule:nonzero;stroke:none;stroke-width:.16353" d="m410.91 404.69-95.328-11.444-.577-.069 82.765 9.935 1.121-9.338 5.698.684.701-5.833-5.699-.686 4.924-41.012 5.7.684.7-5.833-5.7-.684.83-6.906-60.92-7.314 74.057 8.89-8.273 68.926" transform="translate(-4.648 -46.382)"/><path style="fill:#406fbf;fill-opacity:1;fill-rule:nonzero;stroke:none;stroke-width:.16353" d="m397.77 403.112-95.905-11.513 8.275-68.925 95.904 11.514-8.274 68.924" transform="translate(-4.648 -46.382)"/><path style="fill:#90b4e3;fill-opacity:1;fill-rule:nonzero;stroke:none;stroke-width:.16353" d="M353.9 389.751c-1.04 0-2.09-.06-3.147-.188-14.322-1.718-24.54-14.724-22.82-29.048 1.592-13.264 12.867-23.009 25.902-23.009 1.039 0 2.089.063 3.145.189 14.324 1.72 24.54 14.725 22.82 29.048-1.592 13.265-12.866 23.008-25.9 23.008m-14.5-32.918c-.527 0-1.007.2-1.369.618-.538.646.589 1.797 1.572 3.061.983 1.266 5.699 7.673 5.699 7.673l3.156-3.642-7.03-6.826c-.646-.575-1.37-.884-2.028-.884" transform="translate(-4.648 -46.382)"/><path style="fill:#e6effa;fill-opacity:1;fill-rule:nonzero;stroke:none;stroke-width:.16353" d="M345.3 368.185s-4.715-6.407-5.698-7.673c-.983-1.264-2.11-2.415-1.572-3.061a1.757 1.757 0 0 1 1.369-.618c.657 0 1.382.309 2.028.884l7.03 6.826-3.156 3.642" transform="translate(-4.648 -46.382)"/><path style="fill:#fff;fill-opacity:1;fill-rule:nonzero;stroke:none;stroke-width:.16353" d="M345.782 358.062c.163-1.35 1.55-1.764 3.125-1.398 1.368.306 7.767 3.155 7.767 3.155s7.035-1.2 10.69.266c1.22.478 1.27 1.642.864 2.658a2.081 2.081 0 0 1-2.244 1.445l-10.2.088c-.189 0-.377-.022-.56-.067a65.856 65.856 0 0 0-7.797-4.672c-1.475-.71-1.716-.881-1.645-1.475" transform="translate(-4.648 -46.382)"/><path style="fill:#fff;fill-opacity:1;fill-rule:nonzero;stroke:none;stroke-width:.16353" d="M368.174 360.527c-1.081-.84-3.434-.932-5.868-.363a17.768 17.768 0 0 0-7.017 3.401l-.232.067-7.66.582-8.034-6.438c-1.315-.973-2.769-1.076-3.44-.116-.455.652.841 1.768 2.009 2.971.991 1.006 5.176 5.54 6.451 6.923.248.267.542.487.869.647l1.843.895a7.156 7.156 0 0 0 3.009.54l14.89-1.643 8.714 7.703 1.184-9.87-6.718-5.3" transform="translate(-4.648 -46.382)"/><path style="fill:#85a4dc;fill-opacity:1;fill-rule:nonzero;stroke:none;stroke-width:.16353" d="m410.214 347.611-5.699-.684.7-5.833 5.7.684-.7 5.833" transform="translate(-4.648 -46.382)"/><path style="fill:#90b4e3;fill-opacity:1;fill-rule:nonzero;stroke:none;stroke-width:.16353" d="m404.515 346.927-11.753-1.41.7-5.834 11.753 1.411-.7 5.833" transform="translate(-4.648 -46.382)"/><path style="fill:#85a4dc;fill-opacity:1;fill-rule:nonzero;stroke:none;stroke-width:.16353" d="m404.589 394.458-5.698-.684.7-5.835 5.7.686-.702 5.833" transform="translate(-4.648 -46.382)"/><path style="fill:#90b4e3;fill-opacity:1;fill-rule:nonzero;stroke:none;stroke-width:.16353" d="m398.891 393.774-11.754-1.411.701-5.835 11.753 1.411-.7 5.835" transform="translate(-4.648 -46.382)"/><path style="fill:#406fbf;fill-opacity:1;fill-rule:nonzero;stroke:none;stroke-width:.16353" d="m544.68 257.519-7.435-.893-18.933-2.273-2 16.667 23.19 2.783 3.177.383 2-16.667" transform="translate(-4.648 -46.382)"/><path style="fill:#192644;fill-opacity:1;fill-rule:nonzero;stroke:none;stroke-width:.16353" d="m542.68 274.186-3.178-.383-23.19-2.783 2-16.667 18.933 2.273 7.434.893-2 16.667" transform="translate(-4.648 -46.382)"/><path style="fill:#406fbf;fill-opacity:1;fill-rule:nonzero;stroke:none;stroke-width:.16353" d="m470.608 232.57-2.285 16.059 22.345 3.18 3.06.436 2.286-16.06-16.81-2.392-8.596-1.223" transform="translate(-4.648 -46.382)"/><path style="fill:#192644;fill-opacity:1;fill-rule:nonzero;stroke:none;stroke-width:.16353" d="m493.728 252.245-3.06-.435-16.61-2.365-5.735-.816 2.285-16.059 8.595 1.223 16.811 2.393-2.286 16.059" transform="translate(-4.648 -46.382)"/><path style="fill:#406fbf;fill-opacity:1;fill-rule:nonzero;stroke:none;stroke-width:.16353" d="M597.178 184.455c-.087-.491-.394-1.02-.89-1.556a9.021 9.021 0 0 0-.515-.518c-1.318-1.217-3.459-2.496-5.95-3.662-.27-.125-.559-.246-.838-.37a52.139 52.139 0 0 0-6.398-2.357c-2.819-.831-5.578-1.37-7.805-1.447-.194-.008-.39-.018-.574-.018-2.649.008-22.166.932-46.343 2.126-6.705.33-13.77.681-20.93 1.04l-15.907-5.202a16.763 16.763 0 0 0-5.79-.823l-11.345.388 10.64 6.763c-11.441.578-22.432 1.137-31.873 1.618 0 0-5.228-.44-10.327-3.258-2.317-1.282-4.606-3.056-6.366-5.506a278.124 278.124 0 0 1-4.665-6.67l-.082-.125c-.137-.204-.267-.394-.39-.58-.132-.198-.254-.386-.37-.563l-.079-.118-.276-.423-.054-.083-.252-.391-.017-.026c-.242-.378-.48-.758-.714-1.14l-.001-.003-.084-.14-.02-.037-.052-.083-.017-.035-.023-.037-.013-.025-4.83.203-3.425.14 2.403 19.883.04.315.004.051.02.169s.01.592.27 1.537c.42 1.534 1.494 4.001 4.262 6.412h.001c1.76 1.534 4.211 3.04 7.608 4.271 4.907 1.775 11.807 2.963 21.488 2.782l51.63-2.75-10.522 9.875 4.079.186a16.113 16.113 0 0 0 5.807-.796l33.376-11.007 52.242-2.782s2.978-.895 3.75-3.295c.18-.566.24-1.2.116-1.933" transform="translate(-4.648 -46.382)"/><path style="fill:#192644;fill-opacity:1;fill-rule:nonzero;stroke:none;stroke-width:.16353" d="M502.634 204.286c-.249 0-.497-.007-.747-.018l-4.079-.186 10.522-9.874-51.63 2.749c-.654.011-1.294.017-1.923.017-8.68 0-14.99-1.144-19.565-2.8a29.674 29.674 0 0 1-2.86-1.2c-1.973-.955-3.528-2.008-4.748-3.07-.135-.117-.262-.233-.388-.347-2.483-2.298-3.475-4.605-3.876-6.066-.257-.942-.27-1.532-.27-1.537l-.02-.168-.003-.051-.04-.316-2.404-19.882 3.426-.14 4.83-.203.013.024.022.038.018.034.051.084.021.036.084.14v.003c.148.242.38.615.715 1.14l.017.026.252.391.053.084c.089.134.179.273.277.423l.078.118c.116.176.24.365.372.562.122.187.251.377.389.58l.082.125a278.1 278.1 0 0 0 4.665 6.67c1.76 2.45 4.05 4.225 6.366 5.507 5.1 2.817 10.327 3.257 10.327 3.257 9.441-.48 20.432-1.04 31.873-1.617l-10.475-6.659-.165-.105 11.344-.387a16.769 16.769 0 0 1 5.791.822l15.907 5.202c7.16-.358 14.225-.71 20.93-1.04 24.176-1.194 43.694-2.118 46.343-2.126.183 0 .38.01.574.018 2.227.077 4.986.617 7.805 1.447a52.14 52.14 0 0 1 6.398 2.357c.28.124.567.245.839.371 2.49 1.166 4.63 2.445 5.949 3.662.188.175.36.348.515.518.495.536.803 1.065.89 1.555.044.263.065.514.065.752 0 .429-.067.82-.181 1.181-.772 2.4-3.75 3.295-3.75 3.295l-52.242 2.782-11.357 3.746-10.847 3.577-11.172 3.684a16.173 16.173 0 0 1-5.06.815" transform="translate(-4.648 -46.382)"/><path style="fill:#17282f;fill-opacity:1;fill-rule:nonzero;stroke:none;stroke-width:.16353" d="m495.134 238.82-.47-44.938a.408.408 0 0 0-.764-.2l-23.143 40.658a.407.407 0 0 0 .152.557.407.407 0 0 0 .558-.152l22.395-39.342.455 43.426a.41.41 0 1 0 .817-.009m49.423 19.778-.708-68.14a.41.41 0 0 0-.339-.398.408.408 0 0 0-.453.257l-24.583 64.907a.41.41 0 0 0 .237.528.41.41 0 0 0 .526-.238l23.815-62.878.687 65.97a.409.409 0 0 0 .818-.008" transform="translate(-4.648 -46.382)"/></svg>