<svg width="170" height="50" viewBox="0 0 170 50" fill="none" xmlns="http://www.w3.org/2000/svg">
<g clip-path="url(#clip0_1_1107)">
<path d="M165.308 0H4.69212C2.10073 0 0 2.10073 0 4.69212V45.3079C0 47.8993 2.10073 50 4.69212 50H165.308C167.899 50 170 47.8993 170 45.3079V4.69212C170 2.10073 167.899 0 165.308 0Z" fill="white"/>
<path fill-rule="evenodd" clip-rule="evenodd" d="M65.2523 39.167H68.1095L61.8548 21.6586H58.9615L52.7068 39.167H55.468L57.0647 34.5199H63.6676L65.2523 39.167ZM60.2701 24.8375H60.4742L62.9833 32.2389H57.749L60.2701 24.8375ZM75.6856 25.7354C73.9088 25.7354 72.3721 26.6332 71.5798 28.1378H71.3877V25.9538H68.9026V43.4501H71.4837V37.165H71.6878C72.3721 38.5604 73.8488 39.3854 75.7096 39.3854C79.011 39.3854 81.1119 36.7525 81.1119 32.5543C81.1119 28.3562 79.011 25.7354 75.6856 25.7354ZM74.9532 37.0437C72.7923 37.0437 71.4357 35.3208 71.4357 32.5665C71.4357 29.8001 72.7923 28.0771 74.9652 28.0771C77.1502 28.0771 78.4588 29.7637 78.4588 32.5543C78.4588 35.3572 77.1502 37.0437 74.9532 37.0437ZM89.0722 25.7354C87.2954 25.7354 85.7587 26.6332 84.9664 28.1378H84.7743V25.9538H82.2892V43.4501H84.8703V37.165H85.0744C85.7587 38.5604 87.2354 39.3854 89.0962 39.3854C92.3976 39.3854 94.4985 36.7525 94.4985 32.5543C94.4985 28.3562 92.3976 25.7354 89.0722 25.7354ZM88.3398 37.0437C86.1789 37.0437 84.8223 35.3208 84.8223 32.5665C84.8223 29.8001 86.1789 28.0771 88.3518 28.0771C90.5368 28.0771 91.8454 29.7637 91.8454 32.5543C91.8454 35.3572 90.5368 37.0437 88.3398 37.0437ZM99.9624 34.4593C100.154 37.5897 102.736 39.5917 106.577 39.5917C110.683 39.5917 113.252 37.4926 113.252 34.1438C113.252 31.5109 111.788 30.0549 108.234 29.2177L106.325 28.7445C104.068 28.2106 103.156 27.4947 103.156 26.245C103.156 24.6676 104.572 23.6363 106.697 23.6363C108.714 23.6363 110.107 24.6434 110.359 26.2571H112.976C112.82 23.3087 110.251 21.2339 106.733 21.2339C102.952 21.2339 100.431 23.3087 100.431 26.427C100.431 28.9993 101.859 30.5281 104.993 31.2682L107.226 31.8142C109.519 32.3602 110.527 33.161 110.527 34.4957C110.527 36.0488 108.942 37.1772 106.781 37.1772C104.464 37.1772 102.856 36.1216 102.628 34.4593H99.9624ZM115.474 22.7506V26.0144H113.325V28.2106H115.474V35.6726C115.474 38.2206 116.614 39.2398 119.484 39.2398C119.988 39.2398 120.456 39.1792 120.864 39.1064V36.9345C120.504 36.9709 120.3 36.9952 119.904 36.9952C118.619 36.9952 118.055 36.3885 118.055 35.0053V28.2106H120.984V26.0144H118.055V22.7506H115.474ZM127.384 37.1044C125.139 37.1044 123.878 35.4421 123.878 32.5543C123.878 29.6909 125.139 28.0165 127.384 28.0165C129.617 28.0165 130.889 29.6909 130.889 32.5543C130.889 35.43 129.617 37.1044 127.384 37.1044ZM127.384 39.4218C131.202 39.4218 133.543 36.8374 133.543 32.5543C133.543 28.2955 131.19 25.699 127.384 25.699C123.566 25.699 121.213 28.2955 121.213 32.5543C121.213 36.8374 123.554 39.4218 127.384 39.4218ZM134.72 39.167H137.301V31.3653C137.301 29.5089 138.682 28.2591 140.626 28.2591C141.059 28.2591 141.851 28.3441 142.055 28.4169V25.8446C141.779 25.7718 141.287 25.7354 140.915 25.7354C139.21 25.7354 137.769 26.6818 137.397 27.9801H137.205V25.9538H134.72V39.167ZM147.866 27.9194C149.775 27.9194 151.024 29.2662 151.084 31.341H144.481C144.625 29.2783 145.957 27.9194 147.866 27.9194ZM151.072 35.5998C150.592 36.6312 149.523 37.2014 147.962 37.2014C145.897 37.2014 144.565 35.7333 144.481 33.4158V33.2702H153.713V32.3602C153.713 28.2106 151.516 25.699 147.878 25.699C144.193 25.699 141.852 28.3805 141.852 32.6029C141.852 36.8253 144.145 39.4218 147.89 39.4218C150.88 39.4218 152.969 37.9658 153.557 35.5998H151.072Z" fill="black"/>
<path fill-rule="evenodd" clip-rule="evenodd" d="M37.8567 25.743C37.9009 30.8154 42.2481 32.4922 42.3001 32.5093C42.2741 32.6275 41.6193 34.932 39.9888 37.2666C38.6272 39.3256 37.2006 41.3386 34.9348 41.3727C32.7339 41.4252 31.9933 40.0648 29.4689 40.0648C26.9211 40.0648 26.1325 41.3386 24.0213 41.4252C21.8633 41.5053 20.2145 39.2297 18.8036 37.1892C15.983 33.0254 13.7873 25.4554 16.7313 20.3041C18.1579 17.7777 20.7589 16.1508 23.5393 16.1075C25.6999 16.0628 27.7046 17.5821 29.0324 17.5821C30.3342 17.5821 32.8131 15.7648 35.3687 16.0366C36.438 16.0681 39.4808 16.4633 41.4439 19.3561C41.2854 19.4519 37.8191 21.5109 37.8567 25.743ZM33.6992 13.2975C32.5143 14.7103 30.6187 15.791 28.7725 15.6518C28.5309 13.7452 29.4663 11.7178 30.5135 10.4809C31.6971 9.07718 33.7525 8.00176 35.396 7.92822C35.6117 9.90968 34.8347 11.8622 33.6992 13.2975Z" fill="black"/>
<path d="M56.31 18.1C55.8033 18.1 55.3667 18.0433 55 17.93C54.64 17.8167 54.3433 17.6667 54.11 17.48C53.8767 17.2933 53.7 17.0867 53.58 16.86C53.4667 16.6267 53.3967 16.3967 53.37 16.17C53.3633 16.11 53.3833 16.06 53.43 16.02C53.4767 15.98 53.53 15.96 53.59 15.96H54.87C54.95 15.96 55.01 15.9733 55.05 16C55.0967 16.0267 55.14 16.0733 55.18 16.14C55.2533 16.3 55.3767 16.43 55.55 16.53C55.73 16.6233 55.9733 16.67 56.28 16.67C56.52 16.67 56.7267 16.64 56.9 16.58C57.0733 16.52 57.2067 16.4333 57.3 16.32C57.4 16.2 57.45 16.06 57.45 15.9C57.45 15.64 57.3533 15.4433 57.16 15.31C56.9667 15.1767 56.6933 15.11 56.34 15.11H55.61C55.5367 15.11 55.4767 15.0867 55.43 15.04C55.3833 14.9867 55.36 14.9233 55.36 14.85V14.05C55.36 13.9767 55.3833 13.9133 55.43 13.86C55.4767 13.8067 55.5367 13.78 55.61 13.78H56.33C56.6033 13.78 56.8267 13.7233 57 13.61C57.1733 13.49 57.26 13.3067 57.26 13.06C57.26 12.92 57.22 12.7967 57.14 12.69C57.0667 12.5767 56.9567 12.49 56.81 12.43C56.67 12.37 56.4967 12.34 56.29 12.34C55.9967 12.34 55.76 12.3867 55.58 12.48C55.4067 12.5733 55.2967 12.7067 55.25 12.88C55.2167 12.94 55.18 12.9867 55.14 13.02C55.1 13.0467 55.0433 13.06 54.97 13.06H53.65C53.59 13.06 53.5367 13.04 53.49 13C53.45 12.9533 53.4333 12.9 53.44 12.84C53.46 12.6067 53.5267 12.3733 53.64 12.14C53.76 11.9067 53.93 11.7 54.15 11.52C54.3767 11.3333 54.67 11.1833 55.03 11.07C55.39 10.9567 55.8233 10.9 56.33 10.9C56.9033 10.9 57.3933 10.9933 57.8 11.18C58.2133 11.36 58.5333 11.6 58.76 11.9C58.9867 12.2 59.1 12.53 59.1 12.89C59.1 13.0567 59.0767 13.23 59.03 13.41C58.9833 13.5833 58.9033 13.75 58.79 13.91C58.6833 14.0633 58.5233 14.2 58.31 14.32C58.5633 14.44 58.76 14.59 58.9 14.77C59.0467 14.95 59.15 15.1433 59.21 15.35C59.2767 15.5567 59.31 15.7633 59.31 15.97C59.31 16.3967 59.1867 16.77 58.94 17.09C58.7 17.4033 58.3567 17.65 57.91 17.83C57.4633 18.01 56.93 18.1 56.31 18.1ZM61.859 18.1C61.499 18.1 61.1757 18.0333 60.889 17.9C60.609 17.76 60.3857 17.5733 60.219 17.34C60.0523 17.1067 59.969 16.8433 59.969 16.55C59.969 16.0767 60.1623 15.7033 60.549 15.43C60.9357 15.15 61.449 14.96 62.089 14.86L63.339 14.67V14.53C63.339 14.29 63.289 14.1067 63.189 13.98C63.089 13.8533 62.9057 13.79 62.639 13.79C62.4523 13.79 62.299 13.8267 62.179 13.9C62.0657 13.9733 61.9757 14.0733 61.909 14.2C61.849 14.2867 61.7657 14.33 61.659 14.33H60.539C60.4657 14.33 60.409 14.31 60.369 14.27C60.329 14.2233 60.3123 14.17 60.319 14.11C60.319 13.99 60.3623 13.8533 60.449 13.7C60.5423 13.54 60.6823 13.3833 60.869 13.23C61.0557 13.0767 61.2957 12.95 61.589 12.85C61.8823 12.75 62.2357 12.7 62.649 12.7C63.0823 12.7 63.4523 12.75 63.759 12.85C64.0657 12.95 64.3123 13.09 64.499 13.27C64.6923 13.45 64.8357 13.6633 64.929 13.91C65.0223 14.15 65.069 14.4167 65.069 14.71V17.75C65.069 17.8233 65.0423 17.8833 64.989 17.93C64.9423 17.9767 64.8857 18 64.819 18H63.659C63.5857 18 63.5257 17.9767 63.479 17.93C63.4323 17.8833 63.409 17.8233 63.409 17.75V17.4C63.3223 17.5267 63.2057 17.6433 63.059 17.75C62.9123 17.8567 62.739 17.94 62.539 18C62.3457 18.0667 62.119 18.1 61.859 18.1ZM62.329 16.96C62.5223 16.96 62.6957 16.92 62.849 16.84C63.009 16.7533 63.1323 16.6233 63.219 16.45C63.3123 16.27 63.359 16.0467 63.359 15.78V15.64L62.509 15.79C62.1957 15.8433 61.9657 15.9267 61.819 16.04C61.679 16.1467 61.609 16.2733 61.609 16.42C61.609 16.5333 61.6423 16.63 61.709 16.71C61.7757 16.79 61.8623 16.8533 61.969 16.9C62.0757 16.94 62.1957 16.96 62.329 16.96ZM66.4474 18C66.3741 18 66.3141 17.9767 66.2674 17.93C66.2208 17.8833 66.1974 17.8233 66.1974 17.75V13.05C66.1974 12.9767 66.2208 12.9167 66.2674 12.87C66.3141 12.8233 66.3741 12.8 66.4474 12.8H68.7874C69.5808 12.8 70.1574 12.9333 70.5174 13.2C70.8841 13.4667 71.0674 13.8267 71.0674 14.28C71.0674 14.5333 71.0174 14.74 70.9174 14.9C70.8174 15.06 70.6841 15.1933 70.5174 15.3C70.7374 15.4133 70.9108 15.57 71.0374 15.77C71.1641 15.97 71.2274 16.2 71.2274 16.46C71.2274 16.94 71.0408 17.3167 70.6674 17.59C70.2941 17.8633 69.7141 18 68.9274 18H66.4474ZM67.8174 16.93H68.8374C69.0441 16.93 69.2108 16.8933 69.3374 16.82C69.4641 16.74 69.5274 16.6133 69.5274 16.44C69.5274 16.2667 69.4674 16.1433 69.3474 16.07C69.2341 15.99 69.0641 15.95 68.8374 15.95H67.8174V16.93ZM67.8174 14.83H68.8174C69.0241 14.83 69.1874 14.79 69.3074 14.71C69.4341 14.6233 69.4974 14.4967 69.4974 14.33C69.4974 14.1567 69.4341 14.0367 69.3074 13.97C69.1874 13.9033 69.0241 13.87 68.8174 13.87H67.8174V14.83ZM73.8219 18.1C73.4619 18.1 73.1385 18.0333 72.8519 17.9C72.5719 17.76 72.3485 17.5733 72.1819 17.34C72.0152 17.1067 71.9319 16.8433 71.9319 16.55C71.9319 16.0767 72.1252 15.7033 72.5119 15.43C72.8985 15.15 73.4119 14.96 74.0519 14.86L75.3019 14.67V14.53C75.3019 14.29 75.2519 14.1067 75.1519 13.98C75.0519 13.8533 74.8685 13.79 74.6019 13.79C74.4152 13.79 74.2619 13.8267 74.1419 13.9C74.0285 13.9733 73.9385 14.0733 73.8719 14.2C73.8119 14.2867 73.7285 14.33 73.6219 14.33H72.5019C72.4285 14.33 72.3719 14.31 72.3319 14.27C72.2919 14.2233 72.2752 14.17 72.2819 14.11C72.2819 13.99 72.3252 13.8533 72.4119 13.7C72.5052 13.54 72.6452 13.3833 72.8319 13.23C73.0185 13.0767 73.2585 12.95 73.5519 12.85C73.8452 12.75 74.1985 12.7 74.6119 12.7C75.0452 12.7 75.4152 12.75 75.7219 12.85C76.0285 12.95 76.2752 13.09 76.4619 13.27C76.6552 13.45 76.7985 13.6633 76.8919 13.91C76.9852 14.15 77.0319 14.4167 77.0319 14.71V17.75C77.0319 17.8233 77.0052 17.8833 76.9519 17.93C76.9052 17.9767 76.8485 18 76.7819 18H75.6219C75.5485 18 75.4885 17.9767 75.4419 17.93C75.3952 17.8833 75.3719 17.8233 75.3719 17.75V17.4C75.2852 17.5267 75.1685 17.6433 75.0219 17.75C74.8752 17.8567 74.7019 17.94 74.5019 18C74.3085 18.0667 74.0819 18.1 73.8219 18.1ZM74.2919 16.96C74.4852 16.96 74.6585 16.92 74.8119 16.84C74.9719 16.7533 75.0952 16.6233 75.1819 16.45C75.2752 16.27 75.3219 16.0467 75.3219 15.78V15.64L74.4719 15.79C74.1585 15.8433 73.9285 15.9267 73.7819 16.04C73.6419 16.1467 73.5719 16.2733 73.5719 16.42C73.5719 16.5333 73.6052 16.63 73.6719 16.71C73.7385 16.79 73.8252 16.8533 73.9319 16.9C74.0385 16.94 74.1585 16.96 74.2919 16.96ZM78.4103 18C78.337 18 78.277 17.9767 78.2303 17.93C78.1836 17.8833 78.1603 17.8233 78.1603 17.75V13.05C78.1603 12.9767 78.1836 12.9167 78.2303 12.87C78.277 12.8233 78.337 12.8 78.4103 12.8H79.5903C79.657 12.8 79.7136 12.8233 79.7603 12.87C79.8136 12.9167 79.8403 12.9767 79.8403 13.05V14.71H81.6403V13.05C81.6403 12.9767 81.6636 12.9167 81.7103 12.87C81.757 12.8233 81.817 12.8 81.8903 12.8H83.0703C83.137 12.8 83.1936 12.8233 83.2403 12.87C83.2936 12.9167 83.3203 12.9767 83.3203 13.05V17.75C83.3203 17.8233 83.2936 17.8833 83.2403 17.93C83.1936 17.9767 83.137 18 83.0703 18H81.8903C81.817 18 81.757 17.9767 81.7103 17.93C81.6636 17.8833 81.6403 17.8233 81.6403 17.75V16.02H79.8403V17.75C79.8403 17.8233 79.8136 17.8833 79.7603 17.93C79.7136 17.9767 79.657 18 79.5903 18H78.4103ZM86.1073 18C86.0406 18 85.9806 17.9767 85.9273 17.93C85.8806 17.8833 85.8573 17.8233 85.8573 17.75V14.11H84.3373C84.2706 14.11 84.2106 14.0867 84.1573 14.04C84.1106 13.9933 84.0873 13.9333 84.0873 13.86V13.05C84.0873 12.9767 84.1106 12.9167 84.1573 12.87C84.2106 12.8233 84.2706 12.8 84.3373 12.8H89.0373C89.1039 12.8 89.1606 12.8233 89.2073 12.87C89.2606 12.9167 89.2873 12.9767 89.2873 13.05V13.86C89.2873 13.9333 89.2606 13.9933 89.2073 14.04C89.1606 14.0867 89.1039 14.11 89.0373 14.11H87.5173V17.75C87.5173 17.8233 87.4939 17.8833 87.4473 17.93C87.4006 17.9767 87.3406 18 87.2673 18H86.1073ZM91.5758 18.1C91.2158 18.1 90.8924 18.0333 90.6058 17.9C90.3258 17.76 90.1024 17.5733 89.9358 17.34C89.7691 17.1067 89.6858 16.8433 89.6858 16.55C89.6858 16.0767 89.8791 15.7033 90.2658 15.43C90.6524 15.15 91.1658 14.96 91.8058 14.86L93.0558 14.67V14.53C93.0558 14.29 93.0058 14.1067 92.9058 13.98C92.8058 13.8533 92.6224 13.79 92.3558 13.79C92.1691 13.79 92.0158 13.8267 91.8958 13.9C91.7824 13.9733 91.6924 14.0733 91.6258 14.2C91.5658 14.2867 91.4824 14.33 91.3758 14.33H90.2558C90.1824 14.33 90.1258 14.31 90.0858 14.27C90.0458 14.2233 90.0291 14.17 90.0358 14.11C90.0358 13.99 90.0791 13.8533 90.1658 13.7C90.2591 13.54 90.3991 13.3833 90.5858 13.23C90.7724 13.0767 91.0124 12.95 91.3058 12.85C91.5991 12.75 91.9524 12.7 92.3658 12.7C92.7991 12.7 93.1691 12.75 93.4758 12.85C93.7824 12.95 94.0291 13.09 94.2158 13.27C94.4091 13.45 94.5524 13.6633 94.6458 13.91C94.7391 14.15 94.7858 14.4167 94.7858 14.71V17.75C94.7858 17.8233 94.7591 17.8833 94.7058 17.93C94.6591 17.9767 94.6024 18 94.5358 18H93.3758C93.3024 18 93.2424 17.9767 93.1958 17.93C93.1491 17.8833 93.1258 17.8233 93.1258 17.75V17.4C93.0391 17.5267 92.9224 17.6433 92.7758 17.75C92.6291 17.8567 92.4558 17.94 92.2558 18C92.0624 18.0667 91.8358 18.1 91.5758 18.1ZM92.0458 16.96C92.2391 16.96 92.4124 16.92 92.5658 16.84C92.7258 16.7533 92.8491 16.6233 92.9358 16.45C93.0291 16.27 93.0758 16.0467 93.0758 15.78V15.64L92.2258 15.79C91.9124 15.8433 91.6824 15.9267 91.5358 16.04C91.3958 16.1467 91.3258 16.2733 91.3258 16.42C91.3258 16.5333 91.3591 16.63 91.4258 16.71C91.4924 16.79 91.5791 16.8533 91.6858 16.9C91.7924 16.94 91.9124 16.96 92.0458 16.96ZM95.7342 18C95.6676 18 95.6142 17.9833 95.5742 17.95C95.5342 17.91 95.5142 17.86 95.5142 17.8C95.5142 17.76 95.5276 17.7167 95.5542 17.67L97.1642 15.31L95.7842 13.14C95.7776 13.12 95.7676 13.0967 95.7542 13.07C95.7409 13.0433 95.7342 13.02 95.7342 13C95.7342 12.94 95.7542 12.8933 95.7942 12.86C95.8409 12.82 95.8942 12.8 95.9542 12.8H97.2342C97.3142 12.8 97.3742 12.82 97.4142 12.86C97.4609 12.8933 97.4942 12.9267 97.5142 12.96L98.6042 14.71H99.0642V13.05C99.0642 12.9767 99.0876 12.9167 99.1342 12.87C99.1876 12.8233 99.2476 12.8 99.3142 12.8H100.474C100.548 12.8 100.608 12.8233 100.654 12.87C100.701 12.9167 100.724 12.9767 100.724 13.05V14.71H101.184L102.274 12.96C102.294 12.9267 102.328 12.8933 102.374 12.86C102.421 12.82 102.481 12.8 102.554 12.8H103.834C103.894 12.8 103.944 12.82 103.984 12.86C104.031 12.8933 104.054 12.94 104.054 13C104.054 13.02 104.048 13.0433 104.034 13.07C104.028 13.0967 104.018 13.12 104.004 13.14L102.624 15.31L104.234 17.67C104.261 17.71 104.274 17.7533 104.274 17.8C104.274 17.86 104.254 17.91 104.214 17.95C104.174 17.9833 104.121 18 104.054 18H102.644C102.558 18 102.491 17.98 102.444 17.94C102.404 17.9 102.374 17.8667 102.354 17.84L101.164 16.02H100.724V17.75C100.724 17.8233 100.701 17.8833 100.654 17.93C100.608 17.9767 100.548 18 100.474 18H99.3142C99.2476 18 99.1876 17.9767 99.1342 17.93C99.0876 17.8833 99.0642 17.8233 99.0642 17.75V16.02H98.6242L97.4342 17.84C97.4209 17.8667 97.3909 17.9 97.3442 17.94C97.2976 17.98 97.2309 18 97.1442 18H95.7342ZM105.295 18C105.228 18 105.172 17.9767 105.125 17.93C105.078 17.8833 105.055 17.8267 105.055 17.76V13.05C105.055 12.9767 105.078 12.9167 105.125 12.87C105.172 12.8233 105.232 12.8 105.305 12.8H106.485C106.552 12.8 106.608 12.8233 106.655 12.87C106.708 12.9167 106.735 12.9767 106.735 13.05V16.7L106.285 16.48L108.755 12.96C108.788 12.9133 108.828 12.8767 108.875 12.85C108.922 12.8167 108.975 12.8 109.035 12.8H110.105C110.172 12.8 110.228 12.8233 110.275 12.87C110.322 12.9167 110.345 12.9733 110.345 13.04V17.75C110.345 17.8233 110.322 17.8833 110.275 17.93C110.228 17.9767 110.168 18 110.095 18H108.915C108.842 18 108.782 17.9767 108.735 17.93C108.688 17.8833 108.665 17.8233 108.665 17.75V14.21L109.125 14.3L106.635 17.84C106.608 17.8867 106.572 17.9267 106.525 17.96C106.478 17.9867 106.422 18 106.355 18H105.295ZM113.002 18C112.935 18 112.875 17.9767 112.822 17.93C112.775 17.8833 112.752 17.8233 112.752 17.75V14.11H111.232C111.165 14.11 111.105 14.0867 111.052 14.04C111.005 13.9933 110.982 13.9333 110.982 13.86V13.05C110.982 12.9767 111.005 12.9167 111.052 12.87C111.105 12.8233 111.165 12.8 111.232 12.8H115.932C115.998 12.8 116.055 12.8233 116.102 12.87C116.155 12.9167 116.182 12.9767 116.182 13.05V13.86C116.182 13.9333 116.155 13.9933 116.102 14.04C116.055 14.0867 115.998 14.11 115.932 14.11H114.412V17.75C114.412 17.8233 114.388 17.8833 114.342 17.93C114.295 17.9767 114.235 18 114.162 18H113.002ZM117.15 18C117.084 18 117.027 17.9767 116.98 17.93C116.934 17.8833 116.91 17.8267 116.91 17.76V13.05C116.91 12.9767 116.934 12.9167 116.98 12.87C117.027 12.8233 117.087 12.8 117.16 12.8H118.34C118.407 12.8 118.464 12.8233 118.51 12.87C118.564 12.9167 118.59 12.9767 118.59 13.05V16.7L118.14 16.48L120.61 12.96C120.644 12.9133 120.684 12.8767 120.73 12.85C120.777 12.8167 120.83 12.8 120.89 12.8H121.96C122.027 12.8 122.084 12.8233 122.13 12.87C122.177 12.9167 122.2 12.9733 122.2 13.04V17.75C122.2 17.8233 122.177 17.8833 122.13 17.93C122.084 17.9767 122.024 18 121.95 18H120.77C120.697 18 120.637 17.9767 120.59 17.93C120.544 17.8833 120.52 17.8233 120.52 17.75V14.21L120.98 14.3L118.49 17.84C118.464 17.8867 118.427 17.9267 118.38 17.96C118.334 17.9867 118.277 18 118.21 18H117.15ZM127.596 18.1C127.13 18.1 126.743 18.05 126.436 17.95C126.136 17.85 125.896 17.72 125.716 17.56C125.536 17.4 125.406 17.2333 125.326 17.06C125.253 16.88 125.206 16.72 125.186 16.58C125.18 16.5267 125.196 16.4833 125.236 16.45C125.276 16.4167 125.32 16.4 125.366 16.4H126.526C126.6 16.4 126.653 16.4133 126.686 16.44C126.726 16.4667 126.76 16.5033 126.786 16.55C126.846 16.6833 126.943 16.78 127.076 16.84C127.216 16.9 127.396 16.93 127.616 16.93C127.77 16.93 127.903 16.91 128.016 16.87C128.136 16.83 128.226 16.77 128.286 16.69C128.346 16.61 128.376 16.51 128.376 16.39C128.376 16.2233 128.326 16.0967 128.226 16.01C128.126 15.9167 127.953 15.87 127.706 15.87H127.146C127.086 15.87 127.036 15.85 126.996 15.81C126.956 15.7633 126.936 15.71 126.936 15.65V15.08C126.936 15.02 126.956 14.97 126.996 14.93C127.036 14.8833 127.086 14.86 127.146 14.86H127.686C127.893 14.86 128.043 14.8233 128.136 14.75C128.23 14.6767 128.276 14.5633 128.276 14.41C128.276 14.3167 128.253 14.23 128.206 14.15C128.16 14.07 128.086 14.0067 127.986 13.96C127.886 13.9067 127.75 13.88 127.576 13.88C127.33 13.88 127.153 13.9167 127.046 13.99C126.946 14.0567 126.863 14.1633 126.796 14.31C126.77 14.3567 126.736 14.3933 126.696 14.42C126.663 14.4467 126.61 14.46 126.536 14.46H125.416C125.363 14.46 125.32 14.4433 125.286 14.41C125.253 14.3767 125.236 14.3333 125.236 14.28C125.256 14.1067 125.306 13.93 125.386 13.75C125.473 13.5633 125.606 13.39 125.786 13.23C125.966 13.07 126.203 12.9433 126.496 12.85C126.79 12.75 127.156 12.7 127.596 12.7C128.163 12.7 128.613 12.77 128.946 12.91C129.286 13.0433 129.53 13.2233 129.676 13.45C129.823 13.67 129.896 13.9133 129.896 14.18C129.896 14.4067 129.85 14.6133 129.756 14.8C129.663 14.9867 129.496 15.14 129.256 15.26C129.556 15.3733 129.763 15.5467 129.876 15.78C129.99 16.0133 130.046 16.2633 130.046 16.53C130.046 16.85 129.946 17.1267 129.746 17.36C129.553 17.5933 129.273 17.7767 128.906 17.91C128.54 18.0367 128.103 18.1 127.596 18.1Z" fill="#0E2F4B"/>
</g>
<defs>
<clipPath id="clip0_1_1107">
<rect width="170" height="50" fill="white"/>
</clipPath>
</defs>
</svg>
