<svg width="170" height="50" viewBox="0 0 170 50" fill="none" xmlns="http://www.w3.org/2000/svg">
<g clip-path="url(#clip0_1_1081)">
<path fill-rule="evenodd" clip-rule="evenodd" d="M5.72391 0H164.276C167.437 0 170 2.56268 170 5.72391V44.2761C170 47.4373 167.437 50 164.276 50H5.72391C2.56268 50 0 47.4373 0 44.2761L0 5.72391C0 2.56268 2.56268 0 5.72391 0Z" fill="white"/>
<path fill-rule="evenodd" clip-rule="evenodd" d="M123.47 22.3867L129.951 22.3867C129.951 22.3867 133.683 23.0177 133.683 27.2765C133.683 31.5352 129.951 32.1662 129.951 32.1662H123.47V22.3867ZM124.728 24.7523V30.0004H129.128C129.128 30.0004 131.13 30.0004 131.13 27.3763C131.13 24.7523 129.128 24.7523 129.128 24.7523H124.728Z" fill="black"/>
<path d="M125.185 22.3867H122.898V38.2958H125.185V22.3867Z" fill="black"/>
<path d="M137.303 22.3867H135.017V38.2958H137.303V22.3867Z" fill="black"/>
<path fill-rule="evenodd" clip-rule="evenodd" d="M145.778 37.1582C145.148 37.6747 144.141 38.1608 142.551 38.2595C138.908 38.4857 138.906 35.1813 138.906 34.9584C138.906 34.7356 138.726 32.0408 141.624 31.6124C143.676 31.3091 145.114 31.8145 145.778 32.1354V31.6679C145.615 31.0489 145.11 29.9114 143.594 29.9114C141.512 29.9114 141.052 31.0302 141.052 31.0302L139.148 29.9114C139.148 29.9114 140.214 27.7275 143.411 27.7275C147.388 27.7275 148.065 30.4536 148.065 31.3717C148.065 31.3762 148.065 31.3806 148.064 31.3851V38.2906H145.778V37.1582ZM145.615 33.7506C145.615 33.7506 141.21 32.5705 141.056 35.0302C140.903 37.4899 145.282 36.3088 145.674 34.5651C145.674 34.0107 145.615 33.7506 145.615 33.7506Z" fill="black"/>
<path fill-rule="evenodd" clip-rule="evenodd" d="M152.355 37.692L148.278 28.0684H150.565L153.498 34.9931L156.408 28.1234H158.694L152.508 42.7274H150.222L152.355 37.692Z" fill="black"/>
<path fill-rule="evenodd" clip-rule="evenodd" d="M117.78 31.7873L110.548 34.7579C110.548 34.7579 111.015 36.4009 113.189 36.412C114.892 36.4206 115.853 34.912 115.853 34.912L117.688 36.1471C117.688 36.1471 116.207 38.5271 113.175 38.5271C109.449 38.5271 107.808 35.2885 107.808 33.1853C107.808 31.1589 109.11 27.7275 112.944 27.7275C116.777 27.7275 117.78 31.7873 117.78 31.7873ZM115.028 30.9457C115.028 30.9457 114.118 29.5698 112.723 29.8236C109.771 30.3603 110.143 32.9277 110.143 32.9277L115.028 30.9457Z" fill="black"/>
<path d="M106.797 22.3867H104.378V38.2624H106.797V22.3867Z" fill="black"/>
<path fill-rule="evenodd" clip-rule="evenodd" d="M100.507 28.0726L102.743 28.0918V38.1088C102.743 40.6682 101.21 43.3698 97.601 43.3698C93.9921 43.3698 92.8265 40.1914 92.8265 40.1914L94.8801 39.3329C94.8801 39.3329 95.5065 41.2918 97.7078 41.2918C100.215 41.2917 100.507 39.0249 100.507 38.2489V37.1618C100.507 37.1618 99.6398 38.5112 97.4854 38.5112C95.1496 38.5112 92.3739 36.522 92.3739 33.1307C92.3739 29.7395 94.9876 27.7998 97.5125 27.7292C99.5348 27.6727 100.507 29.0633 100.507 29.0633V28.0726ZM97.6764 36.4756C99.307 36.4756 100.629 34.9908 100.629 33.1593C100.629 31.3278 99.307 29.8431 97.6764 29.8431C96.0457 29.8431 94.7238 31.3278 94.7238 33.1593C94.7238 34.9908 96.0457 36.4756 97.6764 36.4756Z" fill="black"/>
<path fill-rule="evenodd" clip-rule="evenodd" d="M85.9269 38.523C82.921 38.523 80.4842 36.1063 80.4842 33.1253C80.4842 30.1442 82.921 27.7275 85.9269 27.7275C88.9328 27.7275 91.3695 30.1442 91.3695 33.1253C91.3695 36.1063 88.9328 38.523 85.9269 38.523ZM85.8913 36.4062C87.5809 36.4062 88.9506 34.9373 88.9506 33.1253C88.9506 31.3132 87.5809 29.8443 85.8913 29.8443C84.2017 29.8443 82.832 31.3132 82.832 33.1253C82.832 34.9373 84.2017 36.4062 85.8913 36.4062Z" fill="black"/>
<path fill-rule="evenodd" clip-rule="evenodd" d="M74.1515 38.523C71.1456 38.523 68.7088 36.1063 68.7088 33.1253C68.7088 30.1442 71.1456 27.7275 74.1515 27.7275C77.1574 27.7275 79.5941 30.1442 79.5941 33.1253C79.5941 36.1063 77.1574 38.523 74.1515 38.523ZM74.1159 36.4062C75.8055 36.4062 77.1752 34.9373 77.1752 33.1253C77.1752 31.3132 75.8055 29.8443 74.1159 29.8443C72.4263 29.8443 71.0566 31.3132 71.0566 33.1253C71.0566 34.9373 72.4263 36.4062 74.1159 36.4062Z" fill="black"/>
<path fill-rule="evenodd" clip-rule="evenodd" d="M65.7845 29.4387H67.8835C67.8837 29.4666 67.8839 29.4946 67.8839 29.5226C68.6734 35.2723 64.725 38.583 59.991 38.5407C55.3348 38.5341 51.5602 34.7973 51.5602 30.1795C51.5602 25.5618 55.3348 21.8184 59.991 21.8184C62.4248 21.8184 64.4708 22.6617 65.8694 24.1261L64.2251 25.7569C63.1995 24.7169 61.7428 24.1468 60.0621 24.1468C56.7026 24.1468 53.9791 26.8477 53.9791 30.1795C53.9791 33.5113 56.7026 36.2123 60.0621 36.2123C62.9769 36.2123 65.1582 34.7624 65.6815 31.6966H60.0977V29.4387H65.7845Z" fill="black"/>
<path fill-rule="evenodd" clip-rule="evenodd" d="M37.7266 28.0279L17.9676 39.3346C16.2392 40.3236 14.0363 39.7243 13.0472 37.9959C12.7352 37.4506 12.5711 36.8333 12.5711 36.2051V13.592C12.5711 11.6007 14.1854 9.98633 16.1768 9.98633C16.805 9.98633 17.4223 10.1505 17.9676 10.4625L37.7266 21.7688C39.455 22.7578 40.0544 24.9607 39.0654 26.6892C38.7463 27.2467 38.2842 27.7089 37.7266 28.0279Z" fill="url(#paint0_linear_1_1081)"/>
<path fill-rule="evenodd" clip-rule="evenodd" d="M12.4613 8.85205L28.4423 24.6402L12.2549 41.0523L12.4613 8.85205Z" fill="url(#paint1_linear_1_1081)"/>
<path fill-rule="evenodd" clip-rule="evenodd" d="M9.17499 5.60205L28.4404 24.645L34.1682 19.2136L9.17499 5.60205Z" fill="url(#paint2_linear_1_1081)"/>
<path fill-rule="evenodd" clip-rule="evenodd" d="M28.443 24.6411L37.2117 33.4264L11.016 42.2117L28.443 24.6411Z" fill="url(#paint3_linear_1_1081)"/>
<path d="M52.6 10.11C52.54 10.11 52.4867 10.09 52.44 10.05C52.3933 10.0033 52.3733 9.95 52.38 9.89C52.4 9.57 52.52 9.26 52.74 8.96C52.9667 8.65333 53.2867 8.4 53.7 8.2C54.12 8 54.6167 7.9 55.19 7.9C55.8033 7.9 56.33 7.99667 56.77 8.19C57.21 8.38333 57.5433 8.64667 57.77 8.98C57.9967 9.31333 58.11 9.68667 58.11 10.1C58.11 10.62 57.8933 11.0567 57.46 11.41C58.02 11.8033 58.3 12.3 58.3 12.9C58.3 13.3133 58.1833 13.6867 57.95 14.02C57.7167 14.3533 57.3733 14.6167 56.92 14.81C56.4667 15.0033 55.9233 15.1 55.29 15.1C54.71 15.1 54.1933 15.0067 53.74 14.82C53.2867 14.6333 52.9333 14.3867 52.68 14.08C52.4267 13.7733 52.2933 13.4533 52.28 13.12C52.28 13.06 52.3 13.01 52.34 12.97C52.3867 12.9233 52.44 12.9 52.5 12.9H53.83C53.9033 12.9 53.9633 12.9167 54.01 12.95C54.0567 12.9767 54.11 13.0233 54.17 13.09C54.2833 13.2167 54.4133 13.3167 54.56 13.39C54.7133 13.4633 54.9567 13.5 55.29 13.5C55.69 13.5 55.9833 13.4467 56.17 13.34C56.3567 13.2267 56.45 13.08 56.45 12.9C56.45 12.72 56.3567 12.5733 56.17 12.46C55.9833 12.3467 55.69 12.29 55.29 12.29H54.54C54.4667 12.29 54.4033 12.2633 54.35 12.21C54.2967 12.1567 54.27 12.0933 54.27 12.02V10.96C54.27 10.8867 54.2967 10.8233 54.35 10.77C54.4033 10.7167 54.4667 10.69 54.54 10.69H55.19C55.5633 10.69 55.8333 10.6367 56 10.53C56.1667 10.4233 56.25 10.28 56.25 10.1C56.25 9.92 56.1667 9.77667 56 9.67C55.8333 9.55667 55.5633 9.5 55.19 9.5C54.9233 9.5 54.7267 9.54 54.6 9.62C54.48 9.69333 54.3733 9.78667 54.28 9.9C54.22 9.97333 54.1667 10.0267 54.12 10.06C54.08 10.0933 54.02 10.11 53.94 10.11H52.6ZM62.2495 11.6C62.2495 11.2333 62.0561 11.05 61.6695 11.05C61.4495 11.05 61.2695 11.11 61.1295 11.23C61.0761 11.2833 61.0228 11.3167 60.9695 11.33C60.9161 11.3433 60.8495 11.35 60.7695 11.35H59.4995C59.4328 11.35 59.3761 11.33 59.3295 11.29C59.2895 11.25 59.2728 11.1967 59.2795 11.13C59.2995 10.9233 59.4128 10.71 59.6195 10.49C59.8328 10.2633 60.1195 10.0767 60.4795 9.93C60.8395 9.77667 61.2361 9.7 61.6695 9.7C62.4628 9.7 63.0561 9.88 63.4495 10.24C63.8495 10.6 64.0495 11.0867 64.0495 11.7V14.73C64.0495 14.8033 64.0228 14.8667 63.9695 14.92C63.9161 14.9733 63.8528 15 63.7795 15H62.5195C62.4461 15 62.3828 14.9733 62.3295 14.92C62.2761 14.8667 62.2495 14.8033 62.2495 14.73V14.45C62.0761 14.6633 61.8695 14.8267 61.6295 14.94C61.3895 15.0467 61.0861 15.1 60.7195 15.1C60.1595 15.1 59.7195 14.9533 59.3995 14.66C59.0861 14.3667 58.9295 13.9867 58.9295 13.52C58.9295 13.0733 59.1028 12.7067 59.4495 12.42C59.7961 12.1333 60.3395 11.9267 61.0795 11.8L62.2495 11.6ZM61.3295 12.93C61.1428 12.9633 60.9961 13.0233 60.8895 13.11C60.7828 13.19 60.7295 13.29 60.7295 13.41C60.7295 13.6367 60.8895 13.75 61.2095 13.75C61.5028 13.75 61.7495 13.6567 61.9495 13.47C62.1495 13.2833 62.2495 13.0567 62.2495 12.79L61.3295 12.93ZM65.3581 15C65.3048 15 65.2581 14.98 65.2181 14.94C65.1781 14.9 65.1581 14.8533 65.1581 14.8V10C65.1581 9.94667 65.1781 9.9 65.2181 9.86C65.2581 9.82 65.3048 9.8 65.3581 9.8H68.2681C68.6615 9.8 69.0181 9.86 69.3381 9.98C69.6581 10.1 69.9081 10.2733 70.0881 10.5C70.2748 10.7267 70.3681 10.99 70.3681 11.29C70.3681 11.71 70.2248 12.05 69.9381 12.31C70.1315 12.4433 70.2681 12.6 70.3481 12.78C70.4281 12.96 70.4681 13.1867 70.4681 13.46C70.4681 13.9533 70.2781 14.3333 69.8981 14.6C69.5248 14.8667 69.0315 15 68.4181 15H65.3581ZM67.0781 11.1V11.82H67.9681C68.1081 11.82 68.2115 11.7833 68.2781 11.71C68.3515 11.6367 68.3881 11.5533 68.3881 11.46C68.3881 11.3667 68.3515 11.2833 68.2781 11.21C68.2115 11.1367 68.1081 11.1 67.9681 11.1H67.0781ZM68.0481 13.7C68.1881 13.7 68.2948 13.6633 68.3681 13.59C68.4481 13.5167 68.4881 13.43 68.4881 13.33C68.4881 13.23 68.4481 13.1433 68.3681 13.07C68.2948 12.9967 68.1881 12.96 68.0481 12.96H67.0781V13.7H68.0481ZM74.3979 11.6C74.3979 11.2333 74.2046 11.05 73.8179 11.05C73.5979 11.05 73.4179 11.11 73.2779 11.23C73.2246 11.2833 73.1712 11.3167 73.1179 11.33C73.0646 11.3433 72.9979 11.35 72.9179 11.35H71.6479C71.5812 11.35 71.5246 11.33 71.4779 11.29C71.4379 11.25 71.4212 11.1967 71.4279 11.13C71.4479 10.9233 71.5612 10.71 71.7679 10.49C71.9812 10.2633 72.2679 10.0767 72.6279 9.93C72.9879 9.77667 73.3846 9.7 73.8179 9.7C74.6112 9.7 75.2046 9.88 75.5979 10.24C75.9979 10.6 76.1979 11.0867 76.1979 11.7V14.73C76.1979 14.8033 76.1712 14.8667 76.1179 14.92C76.0646 14.9733 76.0012 15 75.9279 15H74.6679C74.5946 15 74.5312 14.9733 74.4779 14.92C74.4246 14.8667 74.3979 14.8033 74.3979 14.73V14.45C74.2246 14.6633 74.0179 14.8267 73.7779 14.94C73.5379 15.0467 73.2346 15.1 72.8679 15.1C72.3079 15.1 71.8679 14.9533 71.5479 14.66C71.2346 14.3667 71.0779 13.9867 71.0779 13.52C71.0779 13.0733 71.2512 12.7067 71.5979 12.42C71.9446 12.1333 72.4879 11.9267 73.2279 11.8L74.3979 11.6ZM73.4779 12.93C73.2912 12.9633 73.1446 13.0233 73.0379 13.11C72.9312 13.19 72.8779 13.29 72.8779 13.41C72.8779 13.6367 73.0379 13.75 73.3579 13.75C73.6512 13.75 73.8979 13.6567 74.0979 13.47C74.2979 13.2833 74.3979 13.0567 74.3979 12.79L73.4779 12.93ZM82.3766 9.8C82.4499 9.8 82.5132 9.82667 82.5666 9.88C82.6199 9.93333 82.6466 9.99667 82.6466 10.07V14.73C82.6466 14.8033 82.6199 14.8667 82.5666 14.92C82.5132 14.9733 82.4499 15 82.3766 15H81.1166C81.0432 15 80.9799 14.9733 80.9266 14.92C80.8732 14.8667 80.8466 14.8033 80.8466 14.73V13.2H79.1066V14.73C79.1066 14.8033 79.0799 14.8667 79.0266 14.92C78.9732 14.9733 78.9099 15 78.8366 15H77.5766C77.5032 15 77.4399 14.9767 77.3866 14.93C77.3332 14.8767 77.3066 14.81 77.3066 14.73V10.07C77.3066 9.99667 77.3332 9.93333 77.3866 9.88C77.4399 9.82667 77.5032 9.8 77.5766 9.8H78.8366C78.9099 9.8 78.9732 9.82667 79.0266 9.88C79.0799 9.93333 79.1066 9.99667 79.1066 10.07V11.65H80.8466V10.07C80.8466 9.99667 80.8732 9.93333 80.9266 9.88C80.9799 9.82667 81.0432 9.8 81.1166 9.8H82.3766ZM88.3621 9.8C88.4354 9.8 88.4988 9.82667 88.5521 9.88C88.6054 9.93333 88.6321 9.99667 88.6321 10.07V11.08C88.6321 11.1533 88.6054 11.2167 88.5521 11.27C88.4988 11.3233 88.4354 11.35 88.3621 11.35H86.8721V14.73C86.8721 14.8033 86.8454 14.8667 86.7921 14.92C86.7388 14.9733 86.6754 15 86.6021 15H85.3421C85.2688 15 85.2054 14.9733 85.1521 14.92C85.0988 14.8667 85.0721 14.8033 85.0721 14.73V11.35H83.5821C83.5088 11.35 83.4454 11.3233 83.3921 11.27C83.3388 11.2167 83.3121 11.1533 83.3121 11.08V10.07C83.3121 9.99667 83.3388 9.93333 83.3921 9.88C83.4454 9.82667 83.5088 9.8 83.5821 9.8H88.3621ZM92.3373 11.6C92.3373 11.2333 92.144 11.05 91.7573 11.05C91.5373 11.05 91.3573 11.11 91.2173 11.23C91.164 11.2833 91.1107 11.3167 91.0573 11.33C91.004 11.3433 90.9373 11.35 90.8573 11.35H89.5873C89.5207 11.35 89.464 11.33 89.4173 11.29C89.3773 11.25 89.3607 11.1967 89.3673 11.13C89.3873 10.9233 89.5007 10.71 89.7073 10.49C89.9207 10.2633 90.2073 10.0767 90.5673 9.93C90.9273 9.77667 91.324 9.7 91.7573 9.7C92.5507 9.7 93.144 9.88 93.5373 10.24C93.9373 10.6 94.1373 11.0867 94.1373 11.7V14.73C94.1373 14.8033 94.1107 14.8667 94.0573 14.92C94.004 14.9733 93.9407 15 93.8673 15H92.6073C92.534 15 92.4707 14.9733 92.4173 14.92C92.364 14.8667 92.3373 14.8033 92.3373 14.73V14.45C92.164 14.6633 91.9573 14.8267 91.7173 14.94C91.4773 15.0467 91.174 15.1 90.8073 15.1C90.2473 15.1 89.8073 14.9533 89.4873 14.66C89.174 14.3667 89.0173 13.9867 89.0173 13.52C89.0173 13.0733 89.1907 12.7067 89.5373 12.42C89.884 12.1333 90.4273 11.9267 91.1673 11.8L92.3373 11.6ZM91.4173 12.93C91.2307 12.9633 91.084 13.0233 90.9773 13.11C90.8707 13.19 90.8173 13.29 90.8173 13.41C90.8173 13.6367 90.9773 13.75 91.2973 13.75C91.5907 13.75 91.8373 13.6567 92.0373 13.47C92.2373 13.2833 92.3373 13.0567 92.3373 12.79L91.4173 12.93ZM102.156 9.8C102.223 9.8 102.279 9.82333 102.326 9.87C102.373 9.91667 102.396 9.97 102.396 10.03C102.396 10.0833 102.383 10.13 102.356 10.17L100.636 12.36L102.406 14.63C102.433 14.67 102.446 14.7167 102.446 14.77C102.446 14.83 102.423 14.8833 102.376 14.93C102.329 14.9767 102.273 15 102.206 15H100.676C100.603 15 100.543 14.9833 100.496 14.95C100.449 14.91 100.403 14.8633 100.356 14.81L99.536 13.76V14.73C99.536 14.8033 99.5093 14.8667 99.456 14.92C99.4027 14.9733 99.3393 15 99.266 15H98.006C97.9327 15 97.8693 14.9733 97.816 14.92C97.7627 14.8667 97.736 14.8033 97.736 14.73V13.76L96.916 14.81C96.8693 14.8633 96.8227 14.91 96.776 14.95C96.7293 14.9833 96.6693 15 96.596 15H95.066C94.9993 15 94.9427 14.9767 94.896 14.93C94.8493 14.8833 94.826 14.83 94.826 14.77C94.826 14.7167 94.8393 14.67 94.866 14.63L96.636 12.36L94.916 10.17C94.8893 10.13 94.876 10.0833 94.876 10.03C94.876 9.97 94.8993 9.91667 94.946 9.87C94.9927 9.82333 95.0493 9.8 95.116 9.8H96.666C96.7393 9.8 96.7993 9.82 96.846 9.86C96.8927 9.89333 96.9393 9.93667 96.986 9.99L97.736 10.96V10.07C97.736 9.99667 97.7627 9.93333 97.816 9.88C97.8693 9.82667 97.9327 9.8 98.006 9.8H99.266C99.3393 9.8 99.4027 9.82667 99.456 9.88C99.5093 9.93333 99.536 9.99667 99.536 10.07V10.96L100.286 9.99C100.333 9.93667 100.379 9.89333 100.426 9.86C100.473 9.82 100.533 9.8 100.606 9.8H102.156ZM106.995 15C106.922 15 106.859 14.9733 106.805 14.92C106.752 14.8667 106.725 14.8033 106.725 14.73V12.53L104.835 14.89C104.775 14.9633 104.699 15 104.605 15H103.445C103.372 15 103.309 14.9733 103.255 14.92C103.209 14.8667 103.185 14.8033 103.185 14.73V10.07C103.185 9.99667 103.212 9.93333 103.265 9.88C103.319 9.82667 103.382 9.8 103.455 9.8H104.715C104.789 9.8 104.852 9.82667 104.905 9.88C104.959 9.93333 104.985 9.99667 104.985 10.07V12.28L106.875 9.91C106.935 9.83667 107.009 9.8 107.095 9.8H108.255C108.329 9.8 108.392 9.82667 108.445 9.88C108.499 9.93333 108.525 9.99667 108.525 10.07V14.73C108.525 14.8033 108.499 14.8667 108.445 14.92C108.392 14.9733 108.329 15 108.255 15H106.995ZM114.309 9.8C114.383 9.8 114.446 9.82667 114.499 9.88C114.553 9.93333 114.579 9.99667 114.579 10.07V11.08C114.579 11.1533 114.553 11.2167 114.499 11.27C114.446 11.3233 114.383 11.35 114.309 11.35H112.819V14.73C112.819 14.8033 112.793 14.8667 112.739 14.92C112.686 14.9733 112.623 15 112.549 15H111.289C111.216 15 111.153 14.9733 111.099 14.92C111.046 14.8667 111.019 14.8033 111.019 14.73V11.35H109.529C109.456 11.35 109.393 11.3233 109.339 11.27C109.286 11.2167 109.259 11.1533 109.259 11.08V10.07C109.259 9.99667 109.286 9.93333 109.339 9.88C109.393 9.82667 109.456 9.8 109.529 9.8H114.309ZM119.115 15C119.041 15 118.978 14.9733 118.925 14.92C118.871 14.8667 118.845 14.8033 118.845 14.73V12.53L116.955 14.89C116.895 14.9633 116.818 15 116.725 15H115.565C115.491 15 115.428 14.9733 115.375 14.92C115.328 14.8667 115.305 14.8033 115.305 14.73V10.07C115.305 9.99667 115.331 9.93333 115.385 9.88C115.438 9.82667 115.501 9.8 115.575 9.8H116.835C116.908 9.8 116.971 9.82667 117.025 9.88C117.078 9.93333 117.105 9.99667 117.105 10.07V12.28L118.995 9.91C119.055 9.83667 119.128 9.8 119.215 9.8H120.375C120.448 9.8 120.511 9.82667 120.565 9.88C120.618 9.93333 120.645 9.99667 120.645 10.07V14.73C120.645 14.8033 120.618 14.8667 120.565 14.92C120.511 14.9733 120.448 15 120.375 15H119.115ZM126.158 9.7C126.644 9.7 127.074 9.78333 127.448 9.95C127.828 10.11 128.121 10.3267 128.328 10.6C128.534 10.8667 128.638 11.1533 128.638 11.46C128.638 11.6467 128.608 11.8067 128.548 11.94C128.494 12.0733 128.401 12.2133 128.268 12.36C128.428 12.5133 128.544 12.6667 128.618 12.82C128.698 12.9667 128.738 13.14 128.738 13.34C128.738 13.6467 128.631 13.9367 128.418 14.21C128.204 14.4767 127.901 14.6933 127.508 14.86C127.114 15.02 126.664 15.1 126.158 15.1C125.678 15.1 125.241 15.0233 124.848 14.87C124.454 14.71 124.144 14.5133 123.918 14.28C123.698 14.04 123.588 13.81 123.588 13.59C123.588 13.5233 123.614 13.4667 123.668 13.42C123.721 13.3667 123.784 13.34 123.858 13.34H125.068C125.148 13.34 125.211 13.35 125.258 13.37C125.304 13.39 125.354 13.42 125.408 13.46C125.514 13.52 125.618 13.5667 125.718 13.6C125.818 13.6333 125.964 13.65 126.158 13.65C126.411 13.65 126.604 13.6267 126.738 13.58C126.871 13.5333 126.938 13.4533 126.938 13.34C126.938 13.2333 126.868 13.1533 126.728 13.1C126.588 13.0467 126.398 13.02 126.158 13.02H125.848C125.774 13.02 125.711 12.9933 125.658 12.94C125.604 12.8867 125.578 12.8233 125.578 12.75V12.04C125.578 11.9667 125.604 11.9033 125.658 11.85C125.711 11.7967 125.774 11.77 125.848 11.77H126.158C126.364 11.77 126.528 11.7433 126.648 11.69C126.774 11.6367 126.838 11.56 126.838 11.46C126.838 11.36 126.774 11.2833 126.648 11.23C126.528 11.1767 126.364 11.15 126.158 11.15C125.991 11.15 125.864 11.1667 125.778 11.2C125.691 11.2333 125.604 11.2833 125.518 11.35C125.451 11.3967 125.394 11.43 125.348 11.45C125.301 11.47 125.241 11.48 125.168 11.48H123.958C123.884 11.48 123.821 11.4567 123.768 11.41C123.714 11.3567 123.688 11.2967 123.688 11.23C123.688 11.01 123.791 10.78 123.998 10.54C124.204 10.3 124.494 10.1 124.868 9.94C125.248 9.78 125.678 9.7 126.158 9.7Z" fill="black"/>
</g>
<defs>
<linearGradient id="paint0_linear_1_1081" x1="39.5421" y1="1501.24" x2="-1009.97" y2="1501.24" gradientUnits="userSpaceOnUse">
<stop stop-color="#FBDA09"/>
<stop offset="1" stop-color="#FFBC00"/>
</linearGradient>
<linearGradient id="paint1_linear_1_1081" x1="12.2549" y1="1891.78" x2="1198.51" y2="1724.92" gradientUnits="userSpaceOnUse">
<stop stop-color="#01E2FF"/>
<stop offset="1" stop-color="#01C4FF"/>
</linearGradient>
<linearGradient id="paint2_linear_1_1081" x1="516.065" y1="388.403" x2="1682.74" y2="1919.15" gradientUnits="userSpaceOnUse">
<stop stop-color="#28D781"/>
<stop offset="1" stop-color="#02F076"/>
</linearGradient>
<linearGradient id="paint3_linear_1_1081" x1="1962.29" y1="330.899" x2="966.702" y2="2031.31" gradientUnits="userSpaceOnUse">
<stop stop-color="#F2414E"/>
<stop offset="1" stop-color="#E02554"/>
</linearGradient>
<clipPath id="clip0_1_1081">
<rect width="170" height="50" fill="white"/>
</clipPath>
</defs>
</svg>
