<svg width="270" height="270" viewBox="0 0 270 270" fill="none" xmlns="http://www.w3.org/2000/svg">
<g clip-path="url(#clip0_2532_273)">
<path d="M312 170H0V280H312V170Z" fill="url(#paint0_linear_2532_273)"/>
<path d="M288.293 259.033L171.433 191.241C168.863 189.75 167.266 186.582 167.253 182.085L284.113 249.876C284.126 254.374 285.722 257.542 288.293 259.033Z" fill="#A6B8DF"/>
<path d="M303.925 138.784L187.065 70.9929L195.571 65.9087L312.746 133.7L303.925 138.784Z" fill="#BECBE9"/>
<path d="M303.925 238.458L187.065 170.666V70.9927L198.93 77.875V60.0688L229.71 77.8842V95.7304L303.925 138.784V238.458Z" fill="#A9BAE0"/>
<path d="M297.823 140.283L179.983 72.3682V169.904L297.546 237.819L297.823 140.283Z" fill="url(#paint1_linear_2532_273)"/>
<path d="M295.601 141.433L177.76 73.5188V171.055L295.324 238.969L295.601 141.433Z" fill="url(#paint2_linear_2532_273)"/>
<path d="M284.113 150.202L167.254 82.411L175.762 77.3257L292.937 145.117L284.113 150.202Z" fill="#BECBE9"/>
<path d="M284.113 249.877L167.254 182.085V82.4111L284.113 150.202V249.877Z" fill="url(#paint3_linear_2532_273)"/>
<path d="M229.71 77.8843L198.93 60.0689L207.755 55L238.536 72.8154L229.71 77.8843Z" fill="#BECBE9"/>
<path d="M238.536 72.8154V90.7653L229.71 95.7306V77.8844L238.536 72.8154Z" fill="#C8D3ED"/>
<path d="M238.477 160.789V140.051L219.77 129.236L212.949 133.193V146.077L201.632 139.554L194.811 143.511V165.036L212.829 175.455L212.77 196.194L231.594 207.008L238.416 203.051V190.188L249.735 196.69L256.556 192.733V171.209L238.477 160.789Z" fill="#A50020"/>
<path d="M231.594 186.27L238.416 182.314V203.051L231.594 207.008V186.27Z" fill="#232D78"/>
<path d="M194.811 143.511L201.632 139.554L219.711 149.974L212.949 153.931L194.811 143.511Z" fill="#344B89"/>
<path d="M249.735 175.166L256.556 171.208V192.733L249.735 196.69V175.166Z" fill="#232D78"/>
<path d="M231.656 164.746L238.477 160.789L256.556 171.209L249.735 175.166L231.656 164.746Z" fill="#344B89"/>
<path d="M231.656 144.008L238.477 140.051V160.789L231.656 164.746V144.008Z" fill="#232D78"/>
<path d="M212.949 133.193L219.77 129.236L238.477 140.051L231.656 144.008L212.949 133.193Z" fill="#344B89"/>
<path d="M231.656 144.008V164.746L249.735 175.166V196.69L231.594 186.27V207.008L212.77 196.193L212.829 175.455L194.811 165.036V143.511L212.949 153.931V133.193L231.656 144.008Z" fill="#29407A"/>
<path d="M191.978 176.819C192.08 171.549 188.647 166.254 181.683 162.232C168.014 154.339 145.924 154.339 132.344 162.233C125.575 166.167 122.199 171.319 122.206 176.475C122.206 176.458 122.205 176.441 122.205 176.425V237.449C122.19 242.655 125.438 247.868 132.317 251.84C145.985 259.733 168.075 259.734 181.656 251.84C188.403 247.919 191.967 242.787 191.982 237.648V176.624C191.982 176.689 191.979 176.754 191.978 176.819Z" fill="#A66206"/>
<path d="M191.982 176.625V237.648C191.967 242.788 188.403 247.919 181.657 251.841C168.076 259.734 145.986 259.734 132.317 251.841C125.439 247.869 122.191 242.655 122.206 237.449L122.205 176.425C122.191 181.631 125.626 186.845 132.505 190.817C146.173 198.71 168.263 198.71 181.844 190.817C188.591 186.895 191.968 181.764 191.982 176.625Z" fill="url(#paint4_linear_2532_273)"/>
<path d="M190.033 178.153L189.856 235.767C189.842 240.62 186.654 245.464 180.285 249.167C167.463 256.619 146.607 256.619 133.702 249.167C127.208 245.417 124.141 240.494 124.155 235.579L124.155 177.965C124.141 182.88 127.384 187.803 133.879 191.553C146.783 199.005 167.639 199.005 180.461 191.553C186.831 187.85 190.019 183.005 190.033 178.153Z" fill="url(#paint5_linear_2532_273)"/>
<path d="M155.954 207.609C147.446 207.433 139.019 205.466 132.505 201.704C125.626 197.732 122.191 192.518 122.205 187.312L122.018 229.105C122.003 234.31 125.439 239.524 132.317 243.496C138.88 247.286 147.383 249.255 155.954 249.405V207.609Z" fill="white"/>
<path d="M147.231 223.252C144.37 222.76 141.597 222.051 138.986 221.128V213.04C136.681 212.224 134.502 211.241 132.505 210.088C132.009 209.802 131.534 209.508 131.074 209.21V217.296C129.064 215.99 127.391 214.572 126.064 213.076V222.13C127.401 223.595 129.075 224.984 131.074 226.262V233.065C131.475 233.322 131.889 233.574 132.317 233.821C134.369 235.005 136.611 236.012 138.986 236.842V230.038C141.6 230.949 144.373 231.647 147.231 232.129V223.252Z" fill="#5884C3"/>
<path d="M181.683 162.233C195.352 170.126 195.425 182.923 181.844 190.817C168.263 198.71 146.173 198.71 132.505 190.817C118.835 182.924 118.763 170.127 132.344 162.233C145.925 154.339 168.014 154.339 181.683 162.233Z" fill="url(#paint6_linear_2532_273)"/>
<path d="M177.508 158.411C177.568 155.309 175.548 152.194 171.45 149.827C163.406 145.182 150.408 145.182 142.416 149.827C138.433 152.142 136.446 155.174 136.451 158.208C136.451 158.198 136.45 158.188 136.45 158.179L136.395 170.813C136.387 173.876 138.408 176.944 142.456 179.282C150.499 183.926 163.499 183.927 171.49 179.282C175.46 176.974 177.447 173.954 177.456 170.93L177.511 158.296C177.51 158.334 177.509 158.373 177.508 158.411Z" fill="#A66206"/>
<path d="M177.511 158.296L177.456 170.93C177.447 173.955 175.46 176.974 171.49 179.282C163.498 183.927 150.499 183.927 142.456 179.282C138.408 176.945 136.387 173.877 136.395 170.813L136.45 158.179C136.441 161.242 138.463 164.31 142.511 166.648C150.554 171.293 163.553 171.293 171.545 166.648C175.515 164.34 177.502 161.32 177.511 158.296Z" fill="url(#paint7_linear_2532_273)"/>
<path d="M171.45 149.827C179.493 154.472 179.536 162.003 171.545 166.647C163.553 171.292 150.554 171.292 142.511 166.648C134.467 162.003 134.425 154.472 142.416 149.827C150.408 145.182 163.406 145.182 171.45 149.827Z" fill="#D07400"/>
<path d="M183.962 150.857C184.042 146.781 181.387 142.687 176.002 139.578C165.433 133.474 148.352 133.474 137.851 139.578C132.618 142.62 130.007 146.604 130.012 150.59C130.012 150.578 130.012 150.565 130.012 150.552L129.94 161.386C129.928 165.411 132.585 169.443 137.904 172.514C148.473 178.617 165.554 178.618 176.055 172.514C181.271 169.482 183.883 165.514 183.894 161.54L183.966 150.706C183.966 150.756 183.963 150.807 183.962 150.857Z" fill="#D8D8DA"/>
<path d="M183.966 150.706L183.894 161.54C183.883 165.514 181.272 169.482 176.055 172.514C165.554 178.617 148.473 178.617 137.904 172.514C132.585 169.442 129.929 165.411 129.94 161.386L130.012 150.552C130 154.577 132.657 158.609 137.976 161.68C148.545 167.783 165.626 167.784 176.127 161.68C181.343 158.648 183.955 154.68 183.966 150.706Z" fill="#EBEFF8"/>
<path d="M176.002 139.578C186.571 145.681 186.628 155.576 176.127 161.68C165.626 167.783 148.545 167.783 137.976 161.68C127.406 155.576 127.35 145.681 137.851 139.578C148.352 133.474 165.433 133.474 176.002 139.578Z" fill="#DEE5F5"/>
<path d="M138.077 172.609C138.637 172.927 139.215 173.228 139.809 173.512V162.643C139.215 162.357 138.637 162.055 138.077 161.735V172.609Z" fill="#DEE5F5"/>
<path d="M148.741 165.492C148.158 165.383 147.579 165.265 147.008 165.133V175.982C147.579 176.114 148.158 176.231 148.741 176.339V165.492Z" fill="#DEE5F5"/>
<path d="M153.207 166.097C152.626 166.048 152.049 165.985 151.474 165.915V176.757C152.049 176.827 152.626 176.888 153.207 176.936V166.097Z" fill="#DEE5F5"/>
<path d="M144.275 164.39C143.688 164.207 143.11 164.01 142.542 163.8V174.66C143.111 174.868 143.687 175.065 144.275 175.247V164.39Z" fill="#DEE5F5"/>
<path d="M178.268 171.057C178.899 170.587 179.476 170.099 180.001 169.599V158.834C179.475 159.329 178.898 159.811 178.268 160.277V171.057Z" fill="#DEE5F5"/>
<path d="M162.138 165.98C161.563 166.044 160.984 166.093 160.405 166.134V176.963C160.985 176.921 161.563 176.871 162.138 176.807V165.98Z" fill="#DEE5F5"/>
<path d="M133.611 169.296C134.133 169.814 134.71 170.318 135.344 170.807V159.918C134.709 159.424 134.132 158.914 133.611 158.389V169.296Z" fill="#DEE5F5"/>
<path d="M175.535 162.007C174.973 162.314 174.396 162.605 173.802 162.879V173.681C174.397 173.405 174.973 173.11 175.535 172.801V162.007Z" fill="#DEE5F5"/>
<path d="M166.603 165.248C166.031 165.373 165.454 165.49 164.871 165.592V176.412C165.454 176.31 166.031 176.193 166.603 176.067V165.248Z" fill="#DEE5F5"/>
<path d="M171.069 163.986C170.501 164.187 169.924 164.375 169.337 164.548V175.361C169.924 175.186 170.501 174.996 171.069 174.794V163.986Z" fill="#DEE5F5"/>
<path d="M157.672 177.082V166.249C157.094 166.256 156.517 166.256 155.939 166.242V177.076C156.517 177.089 157.094 177.09 157.672 177.082Z" fill="#DEE5F5"/>
</g>
<defs>
<linearGradient id="paint0_linear_2532_273" x1="34923.5" y1="14768.4" x2="27432.7" y2="-8597.89" gradientUnits="userSpaceOnUse">
<stop stop-color="#93A9D6"/>
<stop offset="1" stop-color="#E0E7F7"/>
</linearGradient>
<linearGradient id="paint1_linear_2532_273" x1="684.535" y1="14956.9" x2="12391.2" y2="3337.01" gradientUnits="userSpaceOnUse">
<stop stop-color="#F1F4FB"/>
<stop offset="1" stop-color="#CED6EA"/>
</linearGradient>
<linearGradient id="paint2_linear_2532_273" x1="6069.78" y1="73.5188" x2="6069.78" y2="16618.6" gradientUnits="userSpaceOnUse">
<stop stop-color="#F1F4FB"/>
<stop offset="1" stop-color="#CED6EA"/>
</linearGradient>
<linearGradient id="paint3_linear_2532_273" x1="-6024.03" y1="25224.1" x2="18893.3" y2="8334.29" gradientUnits="userSpaceOnUse">
<stop stop-color="#93A9D6"/>
<stop offset="1" stop-color="#E0E7F7"/>
</linearGradient>
<linearGradient id="paint4_linear_2532_273" x1="-4276.28" y1="2732.28" x2="8706.99" y2="5021.96" gradientUnits="userSpaceOnUse">
<stop stop-color="#6BA3DE"/>
<stop offset="1" stop-color="#202873"/>
</linearGradient>
<linearGradient id="paint5_linear_2532_273" x1="-12025.4" y1="708.679" x2="8312.87" y2="4270.28" gradientUnits="userSpaceOnUse">
<stop stop-color="#6BA3DE"/>
<stop offset="1" stop-color="#202873"/>
</linearGradient>
<linearGradient id="paint6_linear_2532_273" x1="-4276.29" y1="1426.58" x2="7613.72" y2="5645.63" gradientUnits="userSpaceOnUse">
<stop stop-color="#6BA3DE"/>
<stop offset="1" stop-color="#202873"/>
</linearGradient>
<linearGradient id="paint7_linear_2532_273" x1="-9723.27" y1="-465.844" x2="3575.23" y2="5367.13" gradientUnits="userSpaceOnUse">
<stop stop-color="#6BA3DE"/>
<stop offset="1" stop-color="#202873"/>
</linearGradient>
<clipPath id="clip0_2532_273">
<rect width="270" height="270" fill="white"/>
</clipPath>
</defs>
</svg>
