<svg width="270" height="270" viewBox="0 0 270 270" fill="none" xmlns="http://www.w3.org/2000/svg"><g clip-path="url(#a)"><path fill-rule="evenodd" clip-rule="evenodd" d="M0 239.984 270 85.033V270H0v-30.016Z" fill="url(#b)"/><path d="m125.418 204.623 107.069 61.861 107.095-61.861-107-61.805-107.164 61.805Z" fill="#DFE6F6"/><path d="M339.582 204.623v9.516L232.487 276v-9.516l107.095-61.861Z" fill="#BDCBE8"/><path d="M125.418 204.623v9.516L232.487 276v-9.516l-107.069-61.861Z" fill="#D2DCF1"/><path d="m232.487 256.968 90.621-52.345v-66.611l-90.621 52.338v66.618Z" fill="url(#c)"/><path d="M141.892 138.012v66.611l90.595 52.345V190.35l-90.595-52.338Z" fill="#BDCBE8"/><path d="M133.655 133.254v9.516l98.832 57.103 98.858-57.103v-9.516L232.5 76.159l-98.845 57.095Z" fill="#D2DCF1"/><path d="m133.655 133.254 98.832 57.096 98.858-57.096L232.5 76.159l-98.845 57.095Z" fill="#DFE6F6"/><path d="m150.129 133.255 82.358 47.587 82.384-47.587-82.371-47.58-82.371 47.58Z" fill="url(#d)"/><path d="m158.36 138.016 74.127-42.832.013-9.509-82.371 47.58 8.231 4.761Z" fill="#BDCBE8"/><path d="m314.871 133.255-8.244 4.761-74.14-42.832.013-9.509" fill="#BDCBE8"/><path d="m207.779 252.195-.005-66.608-49.408-28.725v66.607l8.237 4.757-.005-56.912 32.945 19.03v57.093l8.236 4.758Z" fill="#29407A"/><path d="m207.776 185.597.013 66.603 8.228-4.752v-57.106l-8.241-4.745Zm-41.173 42.63 8.237-4.751v-47.4l-8.242-4.762.005 56.913Z" fill="#172750"/><path d="M193.021 211.284c.002-9.512-2.694-18.79-5.992-20.618-3.298-1.827-5.996 4.459-5.996 13.972v22.364l11.993 6.939-.005-22.657Z" fill="#29407A"/><path d="M191.827 215.027c.002-7.617-2.157-15.048-4.799-16.511-2.641-1.464-4.802 3.571-4.802 11.189v17.91l9.605 5.557-.004-18.145Z" fill="#344B89"/><path d="M228.384 211.264v14.673l-8.399-4.76.008-13.69c.002-2.351 2.526-3.838 4.581-2.696a7.4 7.4 0 0 1 3.81 6.473Zm-74.133-42.821v14.673l-8.4-4.761.009-13.689c.001-2.352 2.525-3.838 4.58-2.697a7.403 7.403 0 0 1 3.811 6.474Zm86.486 40.54v14.672l8.399-4.85-.008-13.6c-.001-2.351-2.525-3.837-4.581-2.696a7.405 7.405 0 0 0-3.81 6.474Zm16.474-9.516v14.673l8.4-4.85-.009-13.6c-.001-2.351-2.525-3.837-4.58-2.696a7.401 7.401 0 0 0-3.811 6.473Z" fill="#fff"/><path d="m169.088 229.868-4.139 2.279 24.673 14.322 4.091-2.376-24.625-14.225Z" fill="#DFE6F6"/><path d="M164.949 232.147v4.779l24.666 14.247.007-4.704-24.673-14.322Z" fill="#BDCBE8"/><path d="m164.985 236.978-4.143 2.278 24.673 14.322 4.096-2.375-24.626-14.225Z" fill="#DFE6F6"/><path d="M160.842 239.256v4.817l24.666 14.248.007-4.743-24.673-14.322Z" fill="#BDCBE8"/><path d="m189.622 246.469-.003 4.736-4.104 2.373-.007 4.743 4.103-2.375.004-.038v.045l4.098-2.377v-9.483l-4.091 2.376Z" fill="#A6BBDA"/><path d="M283.997 112.335v-.031c.063-7.575-4.866-15.145-14.808-20.888-19.917-11.505-52.729-11.505-72.916 0-10.1 5.757-15.196 13.349-15.269 20.942v23.501c-.076 7.584 4.86 15.169 14.826 20.925 19.943 11.52 52.755 11.52 72.916 0 10.076-5.757 15.166-13.341 15.251-20.925v-23.524Z" fill="url(#e)"/><path d="M195.83 133.279c-19.943-11.52-19.743-30.357.444-41.862 20.186-11.505 52.998-11.505 72.915 0 19.918 11.505 19.718 30.342-.443 41.862-20.161 11.519-52.974 11.519-72.916 0Z" fill="#DFE6F6"/><path d="M277.54 111.46c-.025 6.675-4.481 13.359-13.344 18.419-17.636 10.078-46.342 10.078-63.788 0-8.575-4.953-12.892-11.447-12.965-17.974-.009-.115-.009-.231-.009-.338 0-24.888 20.173-45.07 45.057-45.07 24.761 0 44.859 19.993 45.041 44.716.008.082.008.165.008.247Z" fill="url(#f)"/><path d="m232.5 55.444-2.118 16.274c-.003.311.2.624.61.86.82.474 2.17.474 2.999 0 .414-.236.623-.549.627-.86L232.5 55.444Z" fill="#7AA5DA"/><path d="M232.487 190.35v9.523l98.858-57.103v-9.516l-98.858 57.096Z" fill="#BDCBE8"/></g><defs><linearGradient id="b" x1="-36520.2" y1="-2704.29" x2="7502.83" y2="37240.5" gradientUnits="userSpaceOnUse"><stop stop-color="#93A9D6"/><stop offset="1" stop-color="#E0E7F7"/></linearGradient><linearGradient id="c" x1="7481.1" y1="4665.67" x2="-11526.3" y2="10630.9" gradientUnits="userSpaceOnUse"><stop stop-color="#93A9D6"/><stop offset="1" stop-color="#E0E7F7"/></linearGradient><linearGradient id="d" x1="7038.86" y1="5454.92" x2="-1598.47" y2="19421.9" gradientUnits="userSpaceOnUse"><stop stop-color="#93A9D6"/><stop offset="1" stop-color="#E0E7F7"/></linearGradient><linearGradient id="e" x1="10008.9" y1="6582.53" x2="-1913.68" y2="6582.53" gradientUnits="userSpaceOnUse"><stop stop-color="#93A9D6"/><stop offset="1" stop-color="#E0E7F7"/></linearGradient><linearGradient id="f" x1="-5492.51" y1="2295.71" x2="10691.4" y2="6521.43" gradientUnits="userSpaceOnUse"><stop stop-color="#6BA3DE"/><stop offset="1" stop-color="#202873"/></linearGradient><clipPath id="a"><path fill="#fff" d="M0 0h270v270H0z"/></clipPath></defs></svg>