<svg width="270" height="270" viewBox="0 0 270 270" fill="none" xmlns="http://www.w3.org/2000/svg"><g clip-path="url(#a)"><path d="M0 0h270v270H0z"/><g clip-path="url(#b)"><path clip-rule="evenodd" d="M0 249.984 290 80.758V300H0v-50.016Z" fill="url(#c)"/><path d="m282.005 213.137-78.791 45.752c-5.354 3.109-14.071 3.109-19.46 0L60.13 187.572c-2.711-1.565-4.066-3.62-4.06-5.671l-.07 8.553c-.006 2.051 1.349 4.106 4.06 5.671l123.624 71.318c5.389 3.109 14.107 3.109 19.46 0l78.791-45.752c2.659-1.544 3.99-3.565 3.995-5.589l.07-8.554c-.006 2.024-1.336 4.045-3.995 5.589Z" fill="#94A9D7"/><path d="M281.938 201.876c5.389 3.108 5.421 8.152.067 11.26l-78.791 45.753c-5.354 3.109-14.071 3.109-19.46 0L60.13 187.572c-5.39-3.109-5.417-8.154-.063-11.264l78.791-45.752c5.354-3.109 14.067-3.107 19.457.002l123.623 71.318Z" fill="url(#d)"/><path d="M272.997 218.37 129.85 135.789l-19.963 11.592 143.147 82.581 19.963-11.592Z" fill="#29407A"/><path opacity=".5" d="m119.425 173.183-15.971-9.213-8.073 4.688 15.971 9.213 8.073-4.688Z" fill="#fff"/><path d="m157.49 195.144-32.792-18.918-8.073 4.688 32.792 18.917 8.073-4.687Z" fill="#fff"/><path d="M205.081 231.33c-2.327-1.342-5.245-2.131-8.263-2.366.592 2.487-.754 5.097-4.046 7.008-3.292 1.911-7.795 2.699-12.095 2.364.416 1.747 1.788 3.433 4.115 4.775 5.64 3.255 14.756 3.257 20.36.003 5.603-3.254 5.57-8.53-.071-11.784Z" fill="url(#e)"/><path d="M192.701 224.188c-5.64-3.254-14.752-3.254-20.356 0-5.604 3.255-5.574 8.528.066 11.782 2.327 1.343 5.246 2.131 8.265 2.367 4.299.335 8.804-.453 12.095-2.364 3.292-1.912 4.638-4.521 4.046-7.008-.416-1.748-1.788-3.434-4.116-4.777Z" fill="url(#f)"/><path d="m327.005 204.137-78.791 45.752c-5.354 3.109-14.071 3.109-19.46 0L105.13 178.572c-2.711-1.565-4.066-3.62-4.06-5.671l-.07 8.553c-.006 2.051 1.349 4.106 4.06 5.671l123.624 71.318c5.389 3.109 14.107 3.109 19.46 0l78.791-45.752c2.659-1.544 3.99-3.565 3.995-5.589l.07-8.554c-.006 2.024-1.336 4.045-3.995 5.589Z" fill="#98ADD8"/><path d="M326.938 192.876c5.389 3.108 5.421 8.152.067 11.26l-78.791 45.753c-5.354 3.109-14.071 3.109-19.46 0L105.13 178.572c-5.39-3.109-5.417-8.154-.063-11.264l78.791-45.752c5.354-3.109 14.067-3.107 19.457.002l123.623 71.318Z" fill="url(#g)"/><path d="m174.85 126.789-19.963 11.592 143.147 82.581 19.963-11.592-143.147-82.581Z" fill="#344B89"/><path d="m164.425 164.183-15.971-9.213-8.073 4.688 15.971 9.213 8.073-4.688Zm38.065 21.961-32.792-18.918-8.073 4.688 32.792 18.917 8.073-4.687Z" opacity=".8" fill="#fff"/><path d="M250.081 222.33c-2.327-1.342-5.245-2.131-8.263-2.366.592 2.487-.754 5.097-4.046 7.008-3.292 1.911-7.795 2.699-12.095 2.364.416 1.747 1.788 3.433 4.115 4.775 5.64 3.255 14.756 3.257 20.36.003 5.603-3.254 5.57-8.53-.071-11.784Z" fill="url(#h)"/><path d="M237.701 215.188c-5.64-3.254-14.752-3.254-20.356 0-5.604 3.255-5.574 8.528.066 11.782 2.327 1.343 5.246 2.131 8.265 2.367 4.299.335 8.804-.453 12.095-2.364 3.292-1.912 4.638-4.521 4.046-7.008-.416-1.748-1.788-3.434-4.116-4.777Z" fill="url(#i)"/></g></g><defs><linearGradient id="c" x1="22176" y1="15432.3" x2="-9988.94" y2="4255.21" gradientUnits="userSpaceOnUse"><stop stop-color="#93A9D6"/><stop offset="1" stop-color="#E0E7F7"/></linearGradient><linearGradient id="d" x1="17638.6" y1="9440.67" x2="-6055.56" y2="-1320.8" gradientUnits="userSpaceOnUse"><stop stop-color="#93A9D6"/><stop offset="1" stop-color="#E0E7F7"/></linearGradient><linearGradient id="e" x1="-3404.2" y1="3814.62" x2="11786.8" y2="-696.961" gradientUnits="userSpaceOnUse"><stop stop-color="#6BA3DE"/><stop offset="1" stop-color="#202873"/></linearGradient><linearGradient id="f" x1="2502.89" y1="1363.21" x2="-1544.74" y2="471.43" gradientUnits="userSpaceOnUse"><stop stop-color="#93A9D6"/><stop offset="1" stop-color="#E0E7F7"/></linearGradient><linearGradient id="g" x1="24444.1" y1="5361.29" x2="-194.509" y2="5361.29" gradientUnits="userSpaceOnUse"><stop stop-color="#93A9D6"/><stop offset="1" stop-color="#E0E7F7"/></linearGradient><linearGradient id="h" x1="-3359.2" y1="3805.62" x2="11831.8" y2="-705.961" gradientUnits="userSpaceOnUse"><stop stop-color="#6BA3DE"/><stop offset="1" stop-color="#202873"/></linearGradient><linearGradient id="i" x1="1652.7" y1="212.748" x2="1652.7" y2="1879.17" gradientUnits="userSpaceOnUse"><stop stop-color="#F1F4FB"/><stop offset="1" stop-color="#CED6EA"/></linearGradient><clipPath id="a"><path fill="#fff" d="M0 0h270v270H0z"/></clipPath><clipPath id="b"><path fill="#fff" d="M0 0h270v270H0z"/></clipPath></defs></svg>