<?xml version="1.0" encoding="UTF-8" standalone="no"?>
<svg
   viewBox="0 0 1573.6277 798.01054"
   height="798.01056"
   width="1573.6277"
   xml:space="preserve"
   id="svg2"
   version="1.1"
   sodipodi:docname="EXTERI_1.svg"
   inkscape:version="1.2.2 (732a01da63, 2022-12-09)"
   xmlns:inkscape="http://www.inkscape.org/namespaces/inkscape"
   xmlns:sodipodi="http://sodipodi.sourceforge.net/DTD/sodipodi-0.dtd"
   xmlns="http://www.w3.org/2000/svg"
   xmlns:svg="http://www.w3.org/2000/svg"
   xmlns:rdf="http://www.w3.org/1999/02/22-rdf-syntax-ns#"
   xmlns:cc="http://creativecommons.org/ns#"
   xmlns:dc="http://purl.org/dc/elements/1.1/"><sodipodi:namedview
     id="namedview2227"
     pagecolor="#ffffff"
     bordercolor="#000000"
     borderopacity="0.25"
     inkscape:showpageshadow="2"
     inkscape:pageopacity="0.0"
     inkscape:pagecheckerboard="0"
     inkscape:deskcolor="#d1d1d1"
     showgrid="false"
     inkscape:zoom="0.30524999"
     inkscape:cx="787.87881"
     inkscape:cy="401.31041"
     inkscape:window-width="1920"
     inkscape:window-height="1001"
     inkscape:window-x="-9"
     inkscape:window-y="-9"
     inkscape:window-maximized="1"
     inkscape:current-layer="g12" /><metadata
     id="metadata8"><rdf:RDF><cc:Work
         rdf:about=""><dc:format>image/svg+xml</dc:format><dc:type
           rdf:resource="http://purl.org/dc/dcmitype/StillImage" /></cc:Work></rdf:RDF></metadata><defs
     id="defs6"><clipPath
       id="clipPath570"
       clipPathUnits="userSpaceOnUse"><path
         id="path568"
         d="m 15202.8,8130.5 h -225.4 v 0 h 50.7 v 0 h 174.7" /></clipPath><clipPath
       id="clipPath744"
       clipPathUnits="userSpaceOnUse"><path
         id="path742"
         d="m 22215.8,14191.2 h -135.9 c 39.1,0 71,31.8 71,71 v 57.5 c 0,37.7 -29.7,68.7 -66.9,70.8 h 5.9 l -62.8,1849 c 0.4,2.7 0.6,5.6 0.6,8.4 v 65.9 h 135.9 v -65.9 c 0,-29.8 -24.1,-54 -54,-54 h -7.3 l 61.3,-1803.3 h 52.2 c 39.1,0 71,-31.8 71,-70.9 v -57.5 c 0,-39.2 -31.9,-71 -71,-71" /></clipPath><clipPath
       id="clipPath1532"
       clipPathUnits="userSpaceOnUse"><path
         id="path1530"
         d="m 25381.9,16938.8 h -4837.6 l 2244.2,950.9 156.1,65.2 -333.3,-209.6 c -45.6,-28.7 -81.2,-63.9 -107.5,-102.9 L 20995.2,17025 H 23934 l 1447.9,-86.2" /></clipPath></defs><g
     transform="matrix(0.13333333,0,0,-0.13333333,-1048.2394,1791.3067)"
     id="g12"><g
       id="g4878"
       transform="translate(-42.057449,-985.92178)"><g
         transform="matrix(3.0747428,0,0,3.0747428,-30638.332,-6681.344)"
         id="g2612"><path
           id="path2614"
           style="fill:#a1b5ff;fill-opacity:1;fill-rule:nonzero;stroke:none"
           d="m 16300,4916.52 h -3664 v 1271.84 h 3664 V 4916.52" /></g><g
         transform="matrix(3.0886131,0,0,3.0886131,-30638.332,-6681.344)"
         id="g2616"><path
           id="path2618"
           style="fill:#4c6ad4;fill-opacity:1;fill-rule:nonzero;stroke:none"
           d="m 16300,6111.1 h -3821.2 v 184.29 H 16300 V 6111.1" /></g><g
         transform="matrix(2.8831605,0,0,2.8831605,-30638.332,-6681.344)"
         id="g2620"><path
           id="path2622"
           style="fill:#b0c1ff;fill-opacity:1;fill-rule:nonzero;stroke:none"
           d="M 16300,5243.2 H 14558.7 V 7090.51 H 16300 V 5243.2" /></g><g
         transform="matrix(2.860068,0,0,2.860068,-30638.332,-6681.344)"
         id="g2624"><path
           id="path2626"
           style="fill:#f2f2f2;fill-opacity:1;fill-rule:nonzero;stroke:none"
           d="m 16300,6541.96 h -360.3 v 500.15 h 360.3 v -500.15" /></g><g
         transform="matrix(2.5751675,0,0,2.5751675,-30638.332,-6681.344)"
         id="g2628"><path
           id="path2630"
           style="fill:#8c9dde;fill-opacity:1;fill-rule:nonzero;stroke:none"
           d="m 16300,5870.32 h -1212.6 v 222.09 H 16300 v -222.09" /></g><g
         transform="matrix(2.8555127,0,0,2.8555127,-30638.332,-6681.344)"
         id="g2632"><path
           id="path2634"
           style="fill:#add1ff;fill-opacity:1;fill-rule:nonzero;stroke:none"
           d="m 16300,7018.66 v -435.55 h -304.7 v 435.55 h 304.7" /></g><g
         transform="matrix(2.9023671,0,0,2.9023671,-30638.332,-6681.344)"
         id="g2636"><path
           id="path2638"
           style="fill:#4c6ad4;fill-opacity:1;fill-rule:nonzero;stroke:none"
           d="m 16300,7006.32 h -1944.1 v 264.32 H 16300 v -264.32" /></g><g
         transform="matrix(3.0747428,0,0,3.0747428,-30638.332,-6681.344)"
         id="g2640"><path
           id="path2642"
           style="fill:#8c9dde;fill-opacity:1;fill-rule:nonzero;stroke:none"
           d="m 16300,4916.52 h -1015.6 v 186 H 16300 v -186" /></g><g
         transform="matrix(2.5198161,0,0,2.5198161,-30638.332,-6681.344)"
         id="g2644"><path
           id="path2646"
           style="fill:#f2f2f2;fill-opacity:1;fill-rule:nonzero;stroke:none"
           d="m 16300,6424.56 h -545.9 v 803.4 h 545.9 v -803.4" /></g><g
         transform="matrix(2.760893,0,0,2.760893,-30638.332,-6681.344)"
         id="g2648"><path
           id="path2650"
           style="fill:#f2f2f2;fill-opacity:1;fill-rule:nonzero;stroke:none"
           d="m 16300,6776.95 h -373.3 v 518.11 h 373.3 v -518.11" /></g><g
         transform="matrix(2.8831605,0,0,2.8831605,-30638.332,-6681.344)"
         id="g2652"><path
           id="path2654"
           style="fill:#f2f2f2;fill-opacity:1;fill-rule:nonzero;stroke:none"
           d="m 16300,5243.2 h -1741.3 v 911.54 H 16300 V 5243.2" /></g><g
         transform="matrix(2.8747193,0,0,2.8747193,-30638.332,-6681.344)"
         id="g2656"><path
           id="path2658"
           style="fill:#afbeed;fill-opacity:1;fill-rule:nonzero;stroke:none"
           d="m 16300,6100.66 v -842.04 h -1642.6 v 842.04 H 16300" /></g><g
         transform="matrix(2.6610114,0,0,2.6610114,-30638.332,-6681.344)"
         id="g2660"><path
           id="path2662"
           style="fill:#f2f2f2;fill-opacity:1;fill-rule:nonzero;stroke:none"
           d="m 16300,5680.94 h -63.7 v 909.66 h 63.7 v -909.66" /></g><g
         transform="matrix(2.7343607,0,0,2.7343607,-30638.332,-6681.344)"
         id="g2664"><path
           id="path2666"
           style="fill:#f2f2f2;fill-opacity:1;fill-rule:nonzero;stroke:none"
           d="m 16300,5528.55 h -61.9 v 885.27 h 61.9 v -885.27" /></g><g
         transform="matrix(2.8102016,0,0,2.8102016,-30638.332,-6681.344)"
         id="g2668"><path
           id="path2670"
           style="fill:#f2f2f2;fill-opacity:1;fill-rule:nonzero;stroke:none"
           d="m 16300,5379.34 h -60.3 v 861.38 h 60.3 v -861.38" /></g><g
         transform="matrix(2.8768761,0,0,2.8768761,-30638.332,-6681.344)"
         id="g2672"><path
           id="path2674"
           style="fill:#f2f2f2;fill-opacity:1;fill-rule:nonzero;stroke:none"
           d="m 16300,5862.71 h -1653.6 v 55.97 H 16300 v -55.97" /></g><g
         transform="matrix(2.5152794,0,0,2.5152794,-30638.332,-6681.344)"
         id="g2676"><path
           id="path2678"
           style="fill:#add1ff;fill-opacity:1;fill-rule:nonzero;stroke:none"
           d="m 16300,7202.49 v -734.1 h -483.1 v 734.1 h 483.1" /></g><g
         transform="matrix(2.5152794,0,0,2.5152794,-30638.332,-6681.344)"
         id="g2680"><path
           id="path2682"
           style="fill:#f2f2f2;fill-opacity:1;fill-rule:nonzero;stroke:none"
           d="m 16300,6972.45 h -483.2 v 44.87 h 483.2 v -44.87" /></g><g
         transform="matrix(2.6617365,0,0,2.6617365,-30638.332,-6681.344)"
         id="g2684"><path
           id="path2686"
           style="fill:#f2f2f2;fill-opacity:1;fill-rule:nonzero;stroke:none"
           d="m 16300,7029.41 h -387.2 v 537.42 h 387.2 v -537.42" /></g><g
         transform="matrix(2.6571812,0,0,2.6571812,-30638.332,-6681.344)"
         id="g2688"><path
           id="path2690"
           style="fill:#add1ff;fill-opacity:1;fill-rule:nonzero;stroke:none"
           d="m 16300,7542.53 v -468.07 h -327.5 v 468.07 h 327.5" /></g><g
         transform="matrix(2.6571812,0,0,2.6571812,-30638.332,-6681.344)"
         id="g2692"><path
           id="path2694"
           style="fill:#f2f2f2;fill-opacity:1;fill-rule:nonzero;stroke:none"
           d="m 16300,7383.1 h -327.5 v 36.54 h 327.5 v -36.54" /></g><g
         transform="matrix(2.7563563,0,0,2.7563563,-30638.332,-6681.344)"
         id="g2696"><path
           id="path2698"
           style="fill:#add1ff;fill-opacity:1;fill-rule:nonzero;stroke:none"
           d="m 16300,7271.16 v -451.23 h -315.7 v 451.23 h 315.7" /></g><g
         transform="matrix(2.7563563,0,0,2.7563563,-30638.332,-6681.344)"
         id="g2700"><path
           id="path2702"
           style="fill:#f2f2f2;fill-opacity:1;fill-rule:nonzero;stroke:none"
           d="m 16300,7117.47 h -315.7 v 35.23 h 315.7 v -35.23" /></g><g
         transform="matrix(2.8555127,0,0,2.8555127,-30638.332,-6681.344)"
         id="g2704"><path
           id="path2706"
           style="fill:#f2f2f2;fill-opacity:1;fill-rule:nonzero;stroke:none"
           d="m 16300,6870.31 h -304.7 v 34 h 304.7 v -34" /></g><g
         transform="matrix(3.0211577,0,0,3.0211577,-30638.332,-6681.344)"
         id="g2708"><path
           id="path2710"
           style="fill:#f2f2f2;fill-opacity:1;fill-rule:nonzero;stroke:none"
           d="m 16300,5358.45 h -455.4 v 670.08 h 455.4 v -670.08" /></g><g
         transform="matrix(3.0166211,0,0,3.0166211,-30638.332,-6681.344)"
         id="g2712"><path
           id="path2714"
           style="fill:#add1ff;fill-opacity:1;fill-rule:nonzero;stroke:none"
           d="m 16300,6005.49 v -612.1 h -402.9 v 612.1 h 402.9" /></g><g
         transform="matrix(3.0166211,0,0,3.0166211,-30638.332,-6681.344)"
         id="g2716"><path
           id="path2718"
           style="fill:#f2f2f2;fill-opacity:1;fill-rule:nonzero;stroke:none"
           d="m 16300,5813.69 h -402.9 v 37.41 h 402.9 v -37.41" /></g><g
         transform="matrix(2.8337217,0,0,2.8337217,-30638.332,-6681.344)"
         id="g2720"><path
           id="path2722"
           style="fill:#7f90cf;fill-opacity:1;fill-rule:nonzero;stroke:none"
           d="m 16239.9,6313.25 h -1022.8 c -33.3,0 -60.1,26.91 -60.1,60.1 v 107.94 c 0,33.2 26.8,60.1 60.1,60.1 h 1022.8 c 33.2,0 60.1,-26.9 60.1,-60.1 v -107.94 c 0,-33.19 -26.9,-60.1 -60.1,-60.1" /></g><g
         transform="matrix(2.8312117,0,0,2.8312117,-30638.332,-6681.344)"
         id="g2724"><path
           id="path2726"
           style="fill:#486be8;fill-opacity:1;fill-rule:nonzero;stroke:none"
           d="m 16239.8,6344 h -1023.6 c -33.3,0 -60.2,26.92 -60.2,60.16 v 108.03 c 0,33.23 26.9,60.13 60.2,60.13 h 1023.6 c 33.3,0 60.2,-26.9 60.2,-60.13 v -108.03 c 0,-33.24 -26.9,-60.16 -60.2,-60.16" /></g><g
         transform="matrix(2.6780054,0,0,2.6780054,-30638.332,-6681.344)"
         id="g2728"><path
           id="path2730"
           style="fill:#f2f2f2;fill-opacity:1;fill-rule:nonzero;stroke:none"
           d="m 16252,6827.9 c 2.7,-0.76 6.2,-1.11 10.5,-1.11 15.4,0 24.7,8.06 24.7,22.7 0,14.03 -9.2,20.76 -23.2,20.76 -5.6,0 -9.9,-0.41 -12,-1.11 z m -12.8,51.17 c 6.2,1.11 14.2,2.09 24.5,2.09 12.6,0 21.8,-3.13 27.6,-8.82 5.4,-5.07 8.7,-12.78 8.7,-22.22 0,-9.65 -2.6,-17.15 -7.6,-22.7 -6.8,-7.71 -17.7,-11.67 -30.2,-11.67 -3.8,0 -7.3,0.14 -10.2,0.97 v -42.56 h -12.8 v 104.91" /></g><g
         transform="matrix(2.6946647,0,0,2.6946647,-30638.332,-6681.344)"
         id="g2732"><path
           id="path2734"
           style="fill:#f2f2f2;fill-opacity:1;fill-rule:nonzero;stroke:none"
           d="m 16223.8,6784.41 c 0,-22.57 11.4,-42.78 31.4,-42.78 20,0 31.4,19.87 31.4,43.88 0,20.98 -10.2,42.92 -31.3,42.92 -21,0 -31.5,-20.84 -31.5,-44.02 z m 76.2,1.72 c 0,-36.36 -20.6,-55.61 -45.6,-55.61 -25.9,0 -44.1,21.59 -44.1,53.54 0,33.53 19.4,55.47 45.5,55.47 26.9,0 44.2,-22.07 44.2,-53.4" /></g><g
         transform="matrix(2.7063969,0,0,2.7063969,-30638.332,-6681.344)"
         id="g2736"><path
           id="path2738"
           style="fill:#f2f2f2;fill-opacity:1;fill-rule:nonzero;stroke:none"
           d="m 16244.1,6719.66 c 5.6,-3.78 13.9,-6.87 22.6,-6.87 12.9,0 20.4,7.28 20.4,17.93 0,9.82 -5.2,15.39 -18.4,20.88 -16,6.05 -25.8,14.98 -25.8,29.75 0,16.42 12.6,28.58 31.6,28.58 10,0 17.3,-2.54 21.6,-5.15 l -3.5,-11.06 c -3.2,1.85 -9.7,4.94 -18.6,4.94 -13.3,0 -18.3,-8.58 -18.3,-15.73 0,-9.82 5.9,-14.63 19.4,-20.27 16.5,-6.87 24.9,-15.46 24.9,-30.84 0,-16.22 -11.1,-30.3 -34.2,-30.3 -9.4,0 -19.7,2.95 -25,6.73 l 3.3,11.41" /></g><g
         transform="matrix(2.719412,0,0,2.719412,-30638.332,-6681.344)"
         id="g2740"><path
           id="path2742"
           style="fill:#f2f2f2;fill-opacity:1;fill-rule:nonzero;stroke:none"
           d="m 16257.6,6764.14 h -29.5 v 11.49 h 71.9 v -11.49 h -29.7 v -93.12 h -12.7 v 93.12" /></g><g
         transform="matrix(2.7401804,0,0,2.7401804,-30638.332,-6681.344)"
         id="g2744"><path
           id="path2746"
           style="fill:#f2f2f2;fill-opacity:1;fill-rule:nonzero;stroke:none"
           d="m 16225.2,6671.75 c 0,-22.19 11.1,-42.07 30.7,-42.07 19.7,0 30.9,19.54 30.9,43.15 0,20.63 -10,42.21 -30.8,42.21 -20.5,0 -30.8,-20.5 -30.8,-43.29 z m 74.8,1.69 c 0,-35.75 -20.2,-54.69 -44.8,-54.69 -25.5,0 -43.4,21.24 -43.4,52.66 0,32.97 19.1,54.55 44.8,54.55 26.4,0 43.4,-21.71 43.4,-52.52" /></g><g
         transform="matrix(2.7516336,0,0,2.7516336,-30638.332,-6681.344)"
         id="g2748"><path
           id="path2750"
           style="fill:#f2f2f2;fill-opacity:1;fill-rule:nonzero;stroke:none"
           d="m 16248.2,6696.28 h 51.8 v -11.22 h -39.3 v -34.32 h 36.3 v -11.09 h -36.3 v -46.75 h -12.5 v 103.38" /></g><g
         transform="matrix(2.7633472,0,0,2.7633472,-30638.332,-6681.344)"
         id="g2752"><path
           id="path2754"
           style="fill:#f2f2f2;fill-opacity:1;fill-rule:nonzero;stroke:none"
           d="m 16248.5,6667.86 h 51.5 v -11.16 h -39.2 v -34.19 h 36.2 v -11.03 h -36.2 v -46.56 h -12.3 v 102.94" /></g><g
         transform="matrix(2.7684231,0,0,2.7684231,-30638.332,-6681.344)"
         id="g2756"><path
           id="path2758"
           style="fill:#f2f2f2;fill-opacity:1;fill-rule:nonzero;stroke:none"
           d="m 16300,6655.64 v -102.76 h -12.4 v 102.76 h 12.4" /></g><g
         transform="matrix(2.7834463,0,0,2.7834463,-30638.332,-6681.344)"
         id="g2760"><path
           id="path2762"
           style="fill:#f2f2f2;fill-opacity:1;fill-rule:nonzero;stroke:none"
           d="m 16299.9,6520.88 c -4.5,-2.4 -13.5,-4.88 -25.1,-4.88 -26.8,0 -46.9,18.24 -46.9,51.71 0,31.99 20.1,53.7 49.6,53.7 11.8,0 19.3,-2.73 22.5,-4.54 l -2.9,-10.82 c -4.7,2.47 -11.3,4.28 -19.2,4.28 -22.3,0 -37.1,-15.3 -37.1,-42.15 0,-24.99 13.4,-41.09 36.6,-41.09 7.4,0 15,1.67 19.9,4.28 l 2.6,-10.49" /></g><g
         transform="matrix(2.7951599,0,0,2.7951599,-30638.332,-6681.344)"
         id="g2764"><path
           id="path2766"
           style="fill:#f2f2f2;fill-opacity:1;fill-rule:nonzero;stroke:none"
           d="m 16295.7,6537.89 h -36.7 v -36.65 h 41 v -11.04 h -53.2 v 101.77 h 51.1 v -11.04 h -38.9 v -32.13 h 36.7 v -10.91" /></g><g
         transform="matrix(2.9835813,0,0,2.9835813,-30638.332,-6681.344)"
         id="g2768"><path
           id="path2770"
           style="fill:#f2f2f2;fill-opacity:1;fill-rule:nonzero;stroke:none"
           d="m 16300,5453.13 h -46.4 v 424.95 h 46.4 v -424.95" /></g><g
         transform="matrix(2.4822397,0,0,2.4822397,-30638.332,-6681.344)"
         id="g2772"><path
           id="path2774"
           style="fill:#f2f2f2;fill-opacity:1;fill-rule:nonzero;stroke:none"
           d="m 16300,6554.5 h -55.7 v 510.77 h 55.7 V 6554.5" /></g><g
         transform="matrix(2.8831605,0,0,2.8831605,-30638.332,-6681.344)"
         id="g2776"><path
           id="path2778"
           style="fill:#7f90cf;fill-opacity:1;fill-rule:nonzero;stroke:none"
           d="m 16300,6912.92 -130.7,10.5 v 62.24 h -357.4 v -33.48 l -203.2,16.34 v 17.14 h -213.1 l -836.9,67.32 H 16300 v -140.06" /></g><g
         transform="matrix(2.860068,0,0,2.860068,-30638.332,-6681.344)"
         id="g2780"><path
           id="path2782"
           style="fill:#a7aec7;fill-opacity:1;fill-rule:nonzero;stroke:none"
           d="m 16300,6979.37 -25.9,2.08 v 10.35 15.69 h -304.3 v -1.57 l -30.1,2.43 v 33.76 h 360.3 v -62.74" /></g><g
         transform="matrix(2.8555127,0,0,2.8555127,-30638.332,-6681.344)"
         id="g2784"><path
           id="path2786"
           style="fill:#7d9acf;fill-opacity:1;fill-rule:nonzero;stroke:none"
           d="m 16300,6992.58 -11.2,0.9 11.2,9.46 v -10.36 m -170.1,13.68 -134.6,10.83 v 1.57 h 304.7 -155.4 l -14.7,-12.4" /></g><g
         transform="matrix(2.760893,0,0,2.760893,-30638.332,-6681.344)"
         id="g2788"><path
           id="path2790"
           style="fill:#a7aec7;fill-opacity:1;fill-rule:nonzero;stroke:none"
           d="m 16300,7277.16 -222.6,17.9 h 222.6 v -17.9" /></g><g
         transform="matrix(2.5751675,0,0,2.5751675,-30638.332,-6681.344)"
         id="g2792"><path
           id="path2794"
           style="fill:#7588cf;fill-opacity:1;fill-rule:nonzero;stroke:none"
           d="m 16300,6092.41 h -94.7 v 1157.11 l -1117.9,-68.46 v 148.5 h 1117.9 v 0.01 h 94.7 V 6092.41" /></g><g
         transform="matrix(2.5751675,0,0,2.5751675,-30638.332,-6681.344)"
         id="g2796"><path
           id="path2798"
           style="fill:#415ab4;fill-opacity:1;fill-rule:nonzero;stroke:none"
           d="m 16300,7329.57 h -94.7 v 221.03 h 94.7 v -221.03" /></g><g
         transform="matrix(2.5751675,0,0,2.5751675,-30638.332,-6681.344)"
         id="g2800"><path
           id="path2802"
           style="fill:#7f90cf;fill-opacity:1;fill-rule:nonzero;stroke:none"
           d="m 16300,5870.32 v 0 222.09 1237.16 221.03 -221.04 -74.24 -364.44 -1020.56" /></g><g
         transform="matrix(2.5751675,0,0,2.5751675,-30638.332,-6681.344)"
         id="g2804"><path
           id="path2806"
           style="fill:#687aba;fill-opacity:1;fill-rule:nonzero;stroke:none"
           d="m 16300,5870.32 h -94.7 v 222.09 h 94.7 v -222.09" /></g><g
         transform="matrix(3.0747428,0,0,3.0747428,-30638.332,-6681.344)"
         id="g2808"><path
           id="path2810"
           style="fill:#7588cf;fill-opacity:1;fill-rule:nonzero;stroke:none"
           d="m 15363.7,5102.52 h -79.3 v 982.67 53.48 0 h 79.3 v 0 h 936.3 v -151.65 l -936.3,90.5 v -975" /></g><g
         transform="matrix(2.8981279,0,0,2.8981279,-30638.332,-6681.344)"
         id="g2812"><path
           id="path2814"
           style="fill:#415ab4;fill-opacity:1;fill-rule:nonzero;stroke:none"
           d="m 16300,6512.76 h -84.2 v 196.39 h 84.2 v -196.4" /></g><g
         transform="matrix(2.8981279,0,0,2.8981279,-30638.332,-6681.344)"
         id="g2816"><path
           id="path2818"
           style="fill:#687aba;fill-opacity:1;fill-rule:nonzero;stroke:none"
           d="m 16300,5216.13 h -84.2 v 197.34 h 84.2 v -197.34" /></g><g
         transform="matrix(2.5152794,0,0,2.5152794,-30638.332,-6681.344)"
         id="g2820"><path
           id="path2822"
           style="fill:#deedff;fill-opacity:1;fill-rule:nonzero;stroke:none"
           d="m 15816.9,6752.83 v 166.77 l 62.6,52.85 h 197.6 -46.2 v -38.96 l -214,-180.66 m 313.3,264.49 h -197.6 l 219.5,185.17 h 147.9 v -41.84 l -169.8,-143.33" /></g><g
         transform="matrix(2.4890819,0,0,2.4890819,-30638.332,-6681.344)"
         id="g2824"><path
           id="path2826"
           style="fill:#fafafa;fill-opacity:1;fill-rule:nonzero;stroke:none"
           d="m 16246.3,7045.85 h -199.7 l 53.7,45.34 h 199.7 l -53.7,-45.34" /></g><g
         transform="matrix(2.4808824,0,0,2.4808824,-30638.332,-6681.344)"
         id="g2828"><path
           id="path2830"
           style="fill:#fafafa;fill-opacity:1;fill-rule:nonzero;stroke:none"
           d="m 16253.2,7029.64 v 39.5 h 46.8 l -46.8,-39.5" /></g><g
         transform="matrix(2.5152794,0,0,2.5152794,-30638.332,-6681.344)"
         id="g2832"><path
           id="path2834"
           style="fill:#deedff;fill-opacity:1;fill-rule:nonzero;stroke:none"
           d="m 15816.9,6484.36 v 166.76 l 214,180.66 v -166.76 l -214,-180.66 m 269,227.08 v 166.69 l 111.7,94.32 h 102.4 v 44.87 h -49.2 l 49.2,41.54 v -166.69 l -214.1,-180.73" /></g><g
         transform="matrix(2.5152794,0,0,2.5152794,-30638.332,-6681.344)"
         id="g2836"><path
           id="path2838"
           style="fill:#fafafa;fill-opacity:1;fill-rule:nonzero;stroke:none"
           d="m 16300,6972.45 h -102.4 l 53.2,44.87 h 49.2 v -44.87" /></g><g
         transform="matrix(2.4822397,0,0,2.4822397,-30638.332,-6681.344)"
         id="g2840"><path
           id="path2842"
           style="fill:#fafafa;fill-opacity:1;fill-rule:nonzero;stroke:none"
           d="m 16244.3,6753.75 v 168.98 l 55.7,46.97 v -168.91 l -55.7,-47.04" /></g><g
         transform="matrix(2.6571812,0,0,2.6571812,-30638.332,-6681.344)"
         id="g2844"><path
           id="path2846"
           style="fill:#deedff;fill-opacity:1;fill-rule:nonzero;stroke:none"
           d="m 15972.5,7247.9 v 157.84 0.02 -22.66 h 160.3 l -160.3,-135.2 m 203.5,171.74 h -187 l 145.5,122.89 h 165.5 v -18.29 l -124,-104.6" /></g><g
         transform="matrix(2.6369706,0,0,2.6369706,-30638.332,-6681.344)"
         id="g2848"><path
           id="path2850"
           style="fill:#fafafa;fill-opacity:1;fill-rule:nonzero;stroke:none"
           d="M 16256.4,7439.69 H 16095 v 22.83 l 16.5,14 h 188.5 l -43.6,-36.83" /></g><g
         transform="matrix(2.6571812,0,0,2.6571812,-30638.332,-6681.344)"
         id="g2852"><path
           id="path2854"
           style="fill:#deedff;fill-opacity:1;fill-rule:nonzero;stroke:none"
           d="m 16068.1,7074.46 h -95.6 v 77.21 l 274.3,231.43 h 53.2 v -112.93 l -231.9,-195.71 m 231.9,345.18 h -9.9 l 9.9,8.37 v -8.37" /></g><g
         transform="matrix(2.6571812,0,0,2.6571812,-30638.332,-6681.344)"
         id="g2856"><path
           id="path2858"
           style="fill:#fafafa;fill-opacity:1;fill-rule:nonzero;stroke:none"
           d="m 16300,7383.1 v 0 h -53.2 l 43.3,36.54 h 9.9 v -36.54" /></g><g
         transform="matrix(2.7563563,0,0,2.7563563,-30638.332,-6681.344)"
         id="g2860"><path
           id="path2862"
           style="fill:#deedff;fill-opacity:1;fill-rule:nonzero;stroke:none"
           d="m 15984.3,7001.44 v 116.03 h 137.5 l -137.5,-116.03 m 179.2,151.26 h -179.2 v 0.9 l 139.3,117.56 h 176.4 v -3.32 l -136.5,-115.14" /></g><g
         transform="matrix(2.7332824,0,0,2.7332824,-30638.332,-6681.344)"
         id="g2864"><path
           id="path2866"
           style="fill:#fafafa;fill-opacity:1;fill-rule:nonzero;stroke:none"
           d="m 16257.9,7177.56 h -138.6 v 35.52 h 180.7 l -42.1,-35.52" /></g><g
         transform="matrix(2.7563563,0,0,2.7563563,-30638.332,-6681.344)"
         id="g2868"><path
           id="path2870"
           style="fill:#deedff;fill-opacity:1;fill-rule:nonzero;stroke:none"
           d="m 16059.5,6819.93 h -75.2 v 88.65 l 247.6,208.89 h 68.1 v 35.23 h -26.4 l 26.4,22.29 V 7022.9 l -240.5,-202.97" /></g><g
         transform="matrix(2.7563563,0,0,2.7563563,-30638.332,-6681.344)"
         id="g2872"><path
           id="path2874"
           style="fill:#fafafa;fill-opacity:1;fill-rule:nonzero;stroke:none"
           d="m 16300,7117.47 h -68.1 l 41.7,35.23 h 26.4 v -35.23" /></g><g
         transform="matrix(2.7563563,0,0,2.7563563,-30638.332,-6681.344)"
         id="g2876"><path
           id="path2878"
           style="fill:#deedff;fill-opacity:1;fill-rule:nonzero;stroke:none"
           d="m 16300,6902.95 -4.5,5.36 4.5,3.85 v -9.21" /></g><g
         transform="matrix(2.8535419,0,0,2.8535419,-30638.332,-6681.344)"
         id="g2880"><path
           id="path2882"
           style="fill:#deedff;fill-opacity:1;fill-rule:nonzero;stroke:none"
           d="m 16006.3,6750.34 v 124.69 h 147.7 l -147.7,-124.69 m 188,158.72 h -174.2 l 120.9,102.02 159,-12.79 -105.7,-89.23" /></g><g
         transform="matrix(2.8350418,0,0,2.8350418,-30638.332,-6681.344)"
         id="g2884"><path
           id="path2886"
           style="fill:#fafafa;fill-opacity:1;fill-rule:nonzero;stroke:none"
           d="m 16259.4,6919.9 h -148.7 v 22.52 l 13.9,11.73 h 175.4 l -40.6,-34.25" /></g><g
         transform="matrix(2.8555127,0,0,2.8555127,-30638.332,-6681.344)"
         id="g2888"><path
           id="path2890"
           style="fill:#cbd7ec;fill-opacity:1;fill-rule:nonzero;stroke:none"
           d="m 16288.8,6993.48 -158.9,12.78 14.7,12.4 h 155.4 v -15.72 l -11.2,-9.46" /></g><g
         transform="matrix(2.8555127,0,0,2.8555127,-30638.332,-6681.344)"
         id="g2892"><path
           id="path2894"
           style="fill:#deedff;fill-opacity:1;fill-rule:nonzero;stroke:none"
           d="m 16082.8,6583.11 h -87.5 v 73.05 l 253.8,214.15 h 50.9 v -103.88 l -217.2,-183.32" /></g><g
         transform="matrix(2.8555127,0,0,2.8555127,-30638.332,-6681.344)"
         id="g2896"><path
           id="path2898"
           style="fill:#deedff;fill-opacity:1;fill-rule:nonzero;stroke:none"
           d="m 16300,6904.31 h -10.7 l 10.7,9 v -9" /></g><g
         transform="matrix(2.8555127,0,0,2.8555127,-30638.332,-6681.344)"
         id="g2900"><path
           id="path2902"
           style="fill:#fafafa;fill-opacity:1;fill-rule:nonzero;stroke:none"
           d="m 16300,6870.31 v 0 h -50.9 l 40.2,34 h 10.7 v -34" /></g><g
         transform="matrix(3.0166211,0,0,3.0166211,-30638.332,-6681.344)"
         id="g2904"><path
           id="path2906"
           style="fill:#deedff;fill-opacity:1;fill-rule:nonzero;stroke:none"
           d="m 15897.1,5591.24 v 138.99 l 98.9,83.46 h 164.7 l -39.3,-33.1 v 33.1 h -45.8 v -71.81 l -178.5,-150.64 m 307.9,259.86 h -164.7 l 183,154.39 h 76.7 v -74.27 l -95,-80.12" /></g><g
         transform="matrix(2.9990321,0,0,2.9990321,-30638.332,-6681.344)"
         id="g2908"><path
           id="path2910"
           style="fill:#fafafa;fill-opacity:1;fill-rule:nonzero;stroke:none"
           d="m 16255.4,5847.76 h -165.6 l 44.5,37.63 h 165.7 l -44.6,-37.63" /></g><g
         transform="matrix(2.9835813,0,0,2.9835813,-30638.332,-6681.344)"
         id="g2912"><path
           id="path2914"
           style="fill:#fafafa;fill-opacity:1;fill-rule:nonzero;stroke:none"
           d="m 16253.6,5805.47 v 72.61 h 46.4 v -33.47 l -46.4,-39.14" /></g><g
         transform="matrix(3.0166211,0,0,3.0166211,-30638.332,-6681.344)"
         id="g2916"><path
           id="path2918"
           style="fill:#deedff;fill-opacity:1;fill-rule:nonzero;stroke:none"
           d="m 15927.9,5393.39 h -30.8 v 112.92 l 178.5,150.7 v -138.99 l -147.7,-124.63 m 193.5,163.28 v 139.04 l 139.9,117.98 h 38.7 v 32.66 0 -139.05 l -178.6,-150.63" /></g><g
         transform="matrix(3.0166211,0,0,3.0166211,-30638.332,-6681.344)"
         id="g2920"><path
           id="path2922"
           style="fill:#fafafa;fill-opacity:1;fill-rule:nonzero;stroke:none"
           d="m 16300,5813.69 h -38.7 l 38.7,32.66 v -32.66" /></g><g
         transform="matrix(2.9835813,0,0,2.9835813,-30638.332,-6681.344)"
         id="g2924"><path
           id="path2926"
           style="fill:#fafafa;fill-opacity:1;fill-rule:nonzero;stroke:none"
           d="m 16253.6,5579.14 v 140.52 l 46.4,39.14 v -140.59 l -46.4,-39.07" /></g><g
         transform="matrix(2.7237813,0,0,2.7237813,-30638.332,-6681.344)"
         id="g2928"><path
           id="path2930"
           style="fill:#d7dff6;fill-opacity:1;fill-rule:nonzero;stroke:none"
           d="m 15469.6,5775.96 v 150.52 l 332.9,265.74 h 59.7 v -102.94 l -392.6,-313.32 m 454.8,362.95 v 53.31 h 66.7 l -66.7,-53.31 m 140.8,112.43 h -140.8 v 38.15 l 186.9,149.22 h 188.7 l -234.8,-187.37" /></g><g
         transform="matrix(2.6610114,0,0,2.6610114,-30638.332,-6681.344)"
         id="g2932"><path
           id="path2934"
           style="fill:#f9f9f9;fill-opacity:1;fill-rule:nonzero;stroke:none"
           d="m 16236.3,6232.92 v 105.37 h 63.7 v -54.57 l -63.7,-50.8 m 63.7,165.88 h -48.8 l 48.8,39.06 v -39.06" /></g><g
         transform="matrix(2.6845501,0,0,2.6845501,-30638.332,-6681.344)"
         id="g2936"><path
           id="path2938"
           style="fill:#f9f9f9;fill-opacity:1;fill-rule:nonzero;stroke:none"
           d="m 16224.8,6282.7 h -67.7 -63.1 -60.6 l 75.2,59.98 h 48.5 142.9 l -75.2,-59.98" /></g><g
         transform="matrix(2.8250202,0,0,2.8250202,-30638.332,-6681.344)"
         id="g2940"><path
           id="path2942"
           style="fill:#d7dff6;fill-opacity:1;fill-rule:nonzero;stroke:none"
           d="m 15226.2,5351.13 h -181.9 l 249.4,199.03 v -145.13 l -67.5,-53.9 m 127.5,101.75 V 5598 l 363.2,289.85 v -145.12 l -363.2,-289.85 m 423.2,337.7 v 145.12 l 43.4,34.62 h 181.8 l -225.2,-179.74 m 296.7,236.74 h -181.9 l 226.4,180.66 h 36.4 v -116.1 l -80.9,-64.56 m 140.9,112.41 v 68.25 h 85.5 l -85.5,-68.25" /></g><g
         transform="matrix(2.6610114,0,0,2.6610114,-30638.332,-6681.344)"
         id="g2944"><path
           id="path2946"
           style="fill:#f9f9f9;fill-opacity:1;fill-rule:nonzero;stroke:none"
           d="m 16236.3,5738.16 v 154.07 l 63.7,50.8 v -154.07 l -63.7,-50.8" /></g><g
         transform="matrix(2.7343607,0,0,2.7343607,-30638.332,-6681.344)"
         id="g2948"><path
           id="path2950"
           style="fill:#f9f9f9;fill-opacity:1;fill-rule:nonzero;stroke:none"
           d="m 16238.1,5933.14 v 149.93 l 61.9,49.44 v -149.94 l -61.9,-49.43" /></g><g
         transform="matrix(2.8102016,0,0,2.8102016,-30638.332,-6681.344)"
         id="g2952"><path
           id="path2954"
           style="fill:#f9f9f9;fill-opacity:1;fill-rule:nonzero;stroke:none"
           d="m 16239.7,6124 v 116.72 h 60.3 v -68.62 l -60.3,-48.1" /></g><g
         transform="matrix(2.7857704,0,0,2.7857704,-30638.332,-6681.344)"
         id="g2956"><path
           id="path2958"
           style="fill:#f9f9f9;fill-opacity:1;fill-rule:nonzero;stroke:none"
           d="m 16227.5,6054.42 h -184.4 l 72.5,57.8 h 184.4 l -72.5,-57.8" /></g><g
         transform="matrix(2.8747193,0,0,2.8747193,-30638.332,-6681.344)"
         id="g2960"><path
           id="path2962"
           style="fill:#d7dff6;fill-opacity:1;fill-rule:nonzero;stroke:none"
           d="m 15841,5258.62 h -330 l 364.3,290.66 v -263.37 l -34.3,-27.29 m 93.2,74.31 v 263.37 l 339.3,270.81 h 26.5 v -242.22 l -365.8,-291.96" /></g><g
         transform="matrix(2.8102016,0,0,2.8102016,-30638.332,-6681.344)"
         id="g2964"><path
           id="path2966"
           style="fill:#f9f9f9;fill-opacity:1;fill-rule:nonzero;stroke:none"
           d="m 16239.7,5407.26 v 269.42 l 60.3,48.1 v -269.41 l -60.3,-48.11" /></g><g
         transform="matrix(2.8747193,0,0,2.8747193,-30638.332,-6681.344)"
         id="g2968"><path
           id="path2970"
           style="fill:#f9f9f9;fill-opacity:1;fill-rule:nonzero;stroke:none"
           d="m 16300,5867.11 v 0 h -26.5 l 26.5,21.14 v -21.14" /></g></g></g></svg>
